/* XPM */
static char *ff2bafd0d5a24de0fda368bb79fe1238g4kKqoFoQzDJJ07R[] = {
/* columns rows colors chars-per-pixel */
"64 64 70 1 ",
"  c #323232",
". c gray19",
"X c #282828",
"o c gray16",
"O c gray22",
"+ c #353536",
"@ c #2F2F2F",
"# c gray20",
"$ c gray21",
"% c #2D2D2E",
"& c gray18",
"* c #343435",
"= c gray15",
"- c #3F3E3E",
"; c #3C3C3C",
": c #313030",
"> c #313131",
", c gray34",
"< c #525354",
"1 c #4D4E51",
"2 c #545455",
"3 c gray32",
"4 c #505051",
"5 c #474749",
"6 c #424243",
"7 c #444546",
"8 c #3A3A3A",
"9 c #2D2D2D",
"0 c #373636",
"q c gray17",
"w c #555556",
"e c #4B4C4F",
"r c #4A4B4E",
"t c #47484A",
"y c #434344",
"u c #414141",
"i c #3F3F3F",
"p c #3A3939",
"a c #353434",
"s c #525253",
"d c #48494B",
"f c gray24",
"g c #2C2C2D",
"h c #424244",
"j c gray23",
"k c #343333",
"l c #333232",
"z c gray14",
"x c #323233",
"c c #272727",
"v c #4C4C4E",
"b c #393838",
"n c #2B2A2A",
"m c #363535",
"M c #454546",
"N c #383737",
"B c #404042",
"V c #3E3E3F",
"C c #414243",
"Z c #353636",
"A c #303031",
"S c #2E2E2F",
"D c #4D4E50",
"F c #4B4B4D",
"G c #464748",
"H c gray25",
"J c #2A2A2A",
"K c #2C2C2C",
"L c #2A2929",
"P c #3C3B3B",
/* pixels */
"    ....XXXXooooOOOO++++@@@@####OOOO$$$$....%%%%&&&&****@@@@====",
"    ....XXXXooooOOOO++++@@@@####OOOO$$$$....%%%%&&&&****@@@@====",
"    ....XXXXooooOOOO++++@@@@####OOOO$$$$....%%%%&&&&****@@@@====",
"    ....XXXXooooOOOO++++@@@@####OOOO$$$$....%%%%&&&&****@@@@====",
"----;;;;::::>>>>,,,,<<<<1111222233333333444455556666777788889999",
"----;;;;::::>>>>,,,,<<<<1111222233333333444455556666777788889999",
"----;;;;::::>>>>,,,,<<<<1111222233333333444455556666777788889999",
"----;;;;::::>>>>,,,,<<<<1111222233333333444455556666777788889999",
"0000####qqqq>>>>wwwweeeerrrrttttyyyyuuuuuuuuuuuuiiiippppaaaa9999",
"0000####qqqq>>>>wwwweeeerrrrttttyyyyuuuuuuuuuuuuiiiippppaaaa9999",
"0000####qqqq>>>>wwwweeeerrrrttttyyyyuuuuuuuuuuuuiiiippppaaaa9999",
"0000####qqqq>>>>wwwweeeerrrrttttyyyyuuuuuuuuuuuuiiiippppaaaa9999",
"####9999qqqq....ssssdddd555566667777----------------ffffaaaaqqqq",
"####9999qqqq....ssssdddd555566667777----------------ffffaaaaqqqq",
"####9999qqqq....ssssdddd555566667777----------------ffffaaaaqqqq",
"####9999qqqq....ssssdddd555566667777----------------ffffaaaaqqqq",
"qqqqqqqqoooogggghhhh;;;;jjjjOOOOkkkkaaaaaaaakkkkaaaallll@@@@zzzz",
"qqqqqqqqoooogggghhhh;;;;jjjjOOOOkkkkaaaaaaaakkkkaaaallll@@@@zzzz",
"qqqqqqqqoooogggghhhh;;;;jjjjOOOOkkkkaaaaaaaakkkkaaaallll@@@@zzzz",
"qqqqqqqqoooogggghhhh;;;;jjjjOOOOkkkkaaaaaaaakkkkaaaallll@@@@zzzz",
">>>>....@@@@    ++++++++xxxxoooocccc....9999oooo&&&&ooooXXXX====",
">>>>....@@@@    ++++++++xxxxoooocccc....9999oooo&&&&ooooXXXX====",
">>>>....@@@@    ++++++++xxxxoooocccc....9999oooo&&&&ooooXXXX====",
">>>>....@@@@    ++++++++xxxxoooocccc....9999oooo&&&&ooooXXXX====",
"wwwwssssvvvvssssdddddddd7777bbbbnnnn0000####@@@@aaaammmmaaaa9999",
"wwwwssssvvvvssssdddddddd7777bbbbnnnn0000####@@@@aaaammmmaaaa9999",
"wwwwssssvvvvssssdddddddd7777bbbbnnnn0000####@@@@aaaammmmaaaa9999",
"wwwwssssvvvvssssdddddddd7777bbbbnnnn0000####@@@@aaaammmmaaaa9999",
"rrrrttttMMMM5555uuuu----NNNNaaaa....mmmm....@@@@9999@@@@llllqqqq",
"rrrrttttMMMM5555uuuu----NNNNaaaa....mmmm....@@@@9999@@@@llllqqqq",
"rrrrttttMMMM5555uuuu----NNNNaaaa....mmmm....@@@@9999@@@@llllqqqq",
"rrrrttttMMMM5555uuuu----NNNNaaaa....mmmm....@@@@9999@@@@llllqqqq",
"BBBBVVVVCCCC8888;;;;8888aaaallll9999aaaaaaaallllqqqqqqqqoooozzzz",
"BBBBVVVVCCCC8888;;;;8888aaaallll9999aaaaaaaallllqqqqqqqqoooozzzz",
"BBBBVVVVCCCC8888;;;;8888aaaallll9999aaaaaaaallllqqqqqqqqoooozzzz",
"BBBBVVVVCCCC8888;;;;8888aaaallll9999aaaaaaaallllqqqqqqqqoooozzzz",
"oooo....9999cccc9999ZZZZOOOO++++AAAAOOOOOOOO++++%%%%qqqqqqqqoooo",
"oooo....9999cccc9999ZZZZOOOO++++AAAAOOOOOOOO++++%%%%qqqqqqqqoooo",
"oooo....9999cccc9999ZZZZOOOO++++AAAAOOOOOOOO++++%%%%qqqqqqqqoooo",
"oooo....9999cccc9999ZZZZOOOO++++AAAAOOOOOOOO++++%%%%qqqqqqqqoooo",
"&&&&0000####qqqqSSSSDDDD33334444FFFF333333334444GGGG----;;;;aaaa",
"&&&&0000####qqqqSSSSDDDD33334444FFFF333333334444GGGG----;;;;aaaa",
"&&&&0000####qqqqSSSSDDDD33334444FFFF333333334444GGGG----;;;;aaaa",
"&&&&0000####qqqqSSSSDDDD33334444FFFF333333334444GGGG----;;;;aaaa",
"XXXX####9999qqqq%%%%5555uuuuuuuuHHHH------------ffff0000####9999",
"XXXX####9999qqqq%%%%5555uuuuuuuuHHHH------------ffff0000####9999",
"XXXX####9999qqqq%%%%5555uuuuuuuuHHHH------------ffff0000####9999",
"XXXX####9999qqqq%%%%5555uuuuuuuuHHHH------------ffff0000####9999",
"====qqqqqqqqJJJJKKKK;;;;jjjj88888888aaaallllkkkkaaaallllqqqqqqqq",
"====qqqqqqqqJJJJKKKK;;;;jjjj88888888aaaallllkkkkaaaallllqqqqqqqq",
"====qqqqqqqqJJJJKKKK;;;;jjjj88888888aaaallllkkkkaaaallllqqqqqqqq",
"====qqqqqqqqJJJJKKKK;;;;jjjj88888888aaaallllkkkkaaaallllqqqqqqqq",
"LLLLqqqqqqqq9999        @@@@oooo....&&&&XXXXcccc9999....qqqqoooo",
"LLLLqqqqqqqq9999        @@@@oooo....&&&&XXXXcccc9999....qqqqoooo",
"LLLLqqqqqqqq9999        @@@@oooo....&&&&XXXXcccc9999....qqqqoooo",
"LLLLqqqqqqqq9999        @@@@oooo....&&&&XXXXcccc9999....qqqqoooo",
"PPPPuuuuHHHH------------8888....NNNN0000####qqqqqqqqHHHHffffNNNN",
"PPPPuuuuHHHH------------8888....NNNN0000####qqqqqqqqHHHHffffNNNN",
"PPPPuuuuHHHH------------8888....NNNN0000####qqqqqqqqHHHHffffNNNN",
"PPPPuuuuHHHH------------8888....NNNN0000####qqqqqqqqHHHHffffNNNN",
"uuuuuuuu----NNNNNNNNNNNNaaaa....NNNNaaaa9999qqqqqqqq----NNNNNNNN",
"uuuuuuuu----NNNNNNNNNNNNaaaa....NNNNaaaa9999qqqqqqqq----NNNNNNNN",
"uuuuuuuu----NNNNNNNNNNNNaaaa....NNNNaaaa9999qqqqqqqq----NNNNNNNN",
"uuuuuuuu----NNNNNNNNNNNNaaaa....NNNNaaaa9999qqqqqqqq----NNNNNNNN"
};
