/* XPM */
static char *xpm_[] = {
/* columns rows colors chars-per-pixel */
"64 64 7 1 ",
"  c #190D10",
". c #3E1E24",
"X c #44242A",
"o c #211114",
"O c #30181C",
"+ c #291519",
"@ c #38181E",
/* pixels */
"                                                                ",
"                                                                ",
"                                                                ",
"                                                                ",
"........XXXX....oooo....XXXXXXXXXXXX............ooooXXXX........",
"........XXXX....oooo....XXXXXXXXXXXX............ooooXXXX........",
"........XXXX....oooo....XXXXXXXXXXXX............ooooXXXX........",
"........XXXX....oooo....XXXXXXXXXXXX............ooooXXXX........",
"OOOO++++OOOO@@@@    @@@@OOOOOOOOOOOOOOOOOOOO@@@@    ....OOOOOOOO",
"OOOO++++OOOO@@@@    @@@@OOOOOOOOOOOOOOOOOOOO@@@@    ....OOOOOOOO",
"OOOO++++OOOO@@@@    @@@@OOOOOOOOOOOOOOOOOOOO@@@@    ....OOOOOOOO",
"OOOO++++OOOO@@@@    @@@@OOOOOOOOOOOOOOOOOOOO@@@@    ....OOOOOOOO",
"OOOO@@@@OOOO++++ooooOOOOOOOO++++++++OOOOOOOO++++ooooOOOOOOOOOOOO",
"OOOO@@@@OOOO++++ooooOOOOOOOO++++++++OOOOOOOO++++ooooOOOOOOOOOOOO",
"OOOO@@@@OOOO++++ooooOOOOOOOO++++++++OOOOOOOO++++ooooOOOOOOOOOOOO",
"OOOO@@@@OOOO++++ooooOOOOOOOO++++++++OOOOOOOO++++ooooOOOOOOOOOOOO",
"            oooooooooooo                    oooooooooooo        ",
"            oooooooooooo                    oooooooooooo        ",
"            oooooooooooo                    oooooooooooo        ",
"            oooooooooooo                    oooooooooooo        ",
"oooo....XXXXXXXXXXXX....@@@@@@@@oooo............@@@@........@@@@",
"oooo....XXXXXXXXXXXX....@@@@@@@@oooo............@@@@........@@@@",
"oooo....XXXXXXXXXXXX....@@@@@@@@oooo............@@@@........@@@@",
"oooo....XXXXXXXXXXXX....@@@@@@@@oooo............@@@@........@@@@",
"    ....@@@@OOOOOOOOOOOOOOOOOOOO    XXXX@@@@OOOOOOOOOOOOOOOOOOOO",
"    ....@@@@OOOOOOOOOOOOOOOOOOOO    XXXX@@@@OOOOOOOOOOOOOOOOOOOO",
"    ....@@@@OOOOOOOOOOOOOOOOOOOO    XXXX@@@@OOOOOOOOOOOOOOOOOOOO",
"    ....@@@@OOOOOOOOOOOOOOOOOOOO    XXXX@@@@OOOOOOOOOOOOOOOOOOOO",
"oooo@@@@OOOOOOOOOOOOOOOO++++++++oooo@@@@OOOOOOOO++++@@@@OOOO++++",
"oooo@@@@OOOOOOOOOOOOOOOO++++++++oooo@@@@OOOOOOOO++++@@@@OOOO++++",
"oooo@@@@OOOOOOOOOOOOOOOO++++++++oooo@@@@OOOOOOOO++++@@@@OOOO++++",
"oooo@@@@OOOOOOOOOOOOOOOO++++++++oooo@@@@OOOOOOOO++++@@@@OOOO++++",
"oooooooo                    oooooooooooo                    oooo",
"oooooooo                    oooooooooooo                    oooo",
"oooooooo                    oooooooooooo                    oooo",
"oooooooo                    oooooooooooo                    oooo",
"@@@@@@@@ooooXXXXXXXX@@@@ooooXXXX@@@@@@@@ooooXXXX@@@@@@@@oooo@@@@",
"@@@@@@@@ooooXXXXXXXX@@@@ooooXXXX@@@@@@@@ooooXXXX@@@@@@@@oooo@@@@",
"@@@@@@@@ooooXXXXXXXX@@@@ooooXXXX@@@@@@@@ooooXXXX@@@@@@@@oooo@@@@",
"@@@@@@@@ooooXXXXXXXX@@@@ooooXXXX@@@@@@@@ooooXXXX@@@@@@@@oooo@@@@",
"OOOOOOOO    @@@@OOOOOOOO    XXXXOOOOOOOO    @@@@OOOOOOOO    @@@@",
"OOOOOOOO    @@@@OOOOOOOO    XXXXOOOOOOOO    @@@@OOOOOOOO    @@@@",
"OOOOOOOO    @@@@OOOOOOOO    XXXXOOOOOOOO    @@@@OOOOOOOO    @@@@",
"OOOOOOOO    @@@@OOOOOOOO    XXXXOOOOOOOO    @@@@OOOOOOOO    @@@@",
"++++OOOOoooo@@@@OOOOOOOOoooo@@@@OOOO++++ooooOOOOOOOOOOOOoooo@@@@",
"++++OOOOoooo@@@@OOOOOOOOoooo@@@@OOOO++++ooooOOOOOOOOOOOOoooo@@@@",
"++++OOOOoooo@@@@OOOOOOOOoooo@@@@OOOO++++ooooOOOOOOOOOOOOoooo@@@@",
"++++OOOOoooo@@@@OOOOOOOOoooo@@@@OOOO++++ooooOOOOOOOOOOOOoooo@@@@",
"    oooooooooooo    oooooooooooo    oooooooooooo    oooooooooooo",
"    oooooooooooo    oooooooooooo    oooooooooooo    oooooooooooo",
"    oooooooooooo    oooooooooooo    oooooooooooo    oooooooooooo",
"    oooooooooooo    oooooooooooo    oooooooooooo    oooooooooooo",
"@@@@XXXX@@@@@@@@oooo@@@@XXXXXXXXXXXXXXXX@@@@@@@@ooooXXXXXXXX@@@@",
"@@@@XXXX@@@@@@@@oooo@@@@XXXXXXXXXXXXXXXX@@@@@@@@ooooXXXXXXXX@@@@",
"@@@@XXXX@@@@@@@@oooo@@@@XXXXXXXXXXXXXXXX@@@@@@@@ooooXXXXXXXX@@@@",
"@@@@XXXX@@@@@@@@oooo@@@@XXXXXXXXXXXXXXXX@@@@@@@@ooooXXXXXXXX@@@@",
"OOOOOOOOOOOOOOOO    @@@@OOOOOOOOOOOO@@@@@@@@OOOO    OOOOOOOOOOOO",
"OOOOOOOOOOOOOOOO    @@@@OOOOOOOOOOOO@@@@@@@@OOOO    OOOOOOOOOOOO",
"OOOOOOOOOOOOOOOO    @@@@OOOOOOOOOOOO@@@@@@@@OOOO    OOOOOOOOOOOO",
"OOOOOOOOOOOOOOOO    @@@@OOOOOOOOOOOO@@@@@@@@OOOO    OOOOOOOOOOOO",
"OOOOOOOO++++++++    OOOOOOOOOOOOOOOOOOOOOOOOOOOO    OOOOOOOOOOOO",
"OOOOOOOO++++++++    OOOOOOOOOOOOOOOOOOOOOOOOOOOO    OOOOOOOOOOOO",
"OOOOOOOO++++++++    OOOOOOOOOOOOOOOOOOOOOOOOOOOO    OOOOOOOOOOOO",
"OOOOOOOO++++++++    OOOOOOOOOOOOOOOOOOOOOOOOOOOO    OOOOOOOOOOOO"
};
