/* XPM */
static char *xpm_[] = {
/* columns rows colors chars-per-pixel */
"64 64 15 1 ",
"  c #511515",
". c #572121",
"X c #501B1B",
"o c #652828",
"O c #723232",
"+ c #411616",
"@ c #B26411",
"# c #854242",
"$ c #FAD64A",
"% c #FDF55F",
"& c #752802",
"* c #FFFDE0",
"= c #DC9613",
"- c #E9B115",
"; c white",
/* pixels */
"    ....    XXXXooooXXXXOOOOOOOOoooooooo++++ooooooooOOOOoooo....",
"    ....    XXXXooooXXXXOOOOOOOOoooooooo++++ooooooooOOOOoooo....",
"    ....    XXXXooooXXXXOOOOOOOOoooooooo++++ooooooooOOOOoooo....",
"    ....    XXXXooooXXXXOOOOOOOOoooooooo++++ooooooooOOOOoooo....",
"....oooooooo....XXXX++++XXXXooooOOOOXXXX    ++++ooooooooXXXX    ",
"....oooooooo....XXXX++++XXXXooooOOOOXXXX    ++++ooooooooXXXX    ",
"....oooooooo....XXXX++++XXXXooooOOOOXXXX    ++++ooooooooXXXX    ",
"....oooooooo....XXXX++++XXXXooooOOOOXXXX    ++++ooooooooXXXX    ",
"OOOOooooOOOOoooo....++++    XXXXoooo....@@@@@@@@ooooXXXXooooOOOO",
"OOOOooooOOOOoooo....++++    XXXXoooo....@@@@@@@@ooooXXXXooooOOOO",
"OOOOooooOOOOoooo....++++    XXXXoooo....@@@@@@@@ooooXXXXooooOOOO",
"OOOOooooOOOOoooo....++++    XXXXoooo....@@@@@@@@ooooXXXXooooOOOO",
"####OOOOooooOOOOooooXXXX....@@@@@@@@@@@@$$$$$$$$@@@@ooooXXXXoooo",
"####OOOOooooOOOOooooXXXX....@@@@@@@@@@@@$$$$$$$$@@@@ooooXXXXoooo",
"####OOOOooooOOOOooooXXXX....@@@@@@@@@@@@$$$$$$$$@@@@ooooXXXXoooo",
"####OOOOooooOOOOooooXXXX....@@@@@@@@@@@@$$$$$$$$@@@@ooooXXXXoooo",
"OOOO####OOOOoooo@@@@@@@@@@@@%%%%%%%%%%%%%%%%%%%%%%%%@@@@oooo....",
"OOOO####OOOOoooo@@@@@@@@@@@@%%%%%%%%%%%%%%%%%%%%%%%%@@@@oooo....",
"OOOO####OOOOoooo@@@@@@@@@@@@%%%%%%%%%%%%%%%%%%%%%%%%@@@@oooo....",
"OOOO####OOOOoooo@@@@@@@@@@@@%%%%%%%%%%%%%%%%%%%%%%%%@@@@oooo....",
"    @@@@@@@@@@@@$$$$%%%%%%%%%%%%%%%%%%%%%%%%%%%%%%%%$$$$&&&&oooo",
"    @@@@@@@@@@@@$$$$%%%%%%%%%%%%%%%%%%%%%%%%%%%%%%%%$$$$&&&&oooo",
"    @@@@@@@@@@@@$$$$%%%%%%%%%%%%%%%%%%%%%%%%%%%%%%%%$$$$&&&&oooo",
"    @@@@@@@@@@@@$$$$%%%%%%%%%%%%%%%%%%%%%%%%%%%%%%%%$$$$&&&&oooo",
"@@@@****%%%%%%%%%%%%%%%%%%%%%%%%%%%%%%%%%%%%%%%%********%%%%&&&&",
"@@@@****%%%%%%%%%%%%%%%%%%%%%%%%%%%%%%%%%%%%%%%%********%%%%&&&&",
"@@@@****%%%%%%%%%%%%%%%%%%%%%%%%%%%%%%%%%%%%%%%%********%%%%&&&&",
"@@@@****%%%%%%%%%%%%%%%%%%%%%%%%%%%%%%%%%%%%%%%%********%%%%&&&&",
"@@@@$$$$****%%%%%%%%%%%%%%%%%%%%%%%%************%%%%====$$$$&&&&",
"@@@@$$$$****%%%%%%%%%%%%%%%%%%%%%%%%************%%%%====$$$$&&&&",
"@@@@$$$$****%%%%%%%%%%%%%%%%%%%%%%%%************%%%%====$$$$&&&&",
"@@@@$$$$****%%%%%%%%%%%%%%%%%%%%%%%%************%%%%====$$$$&&&&",
"@@@@$$$$%%%%****%%%%%%%%************%%%%----============$$$$&&&&",
"@@@@$$$$%%%%****%%%%%%%%************%%%%----============$$$$&&&&",
"@@@@$$$$%%%%****%%%%%%%%************%%%%----============$$$$&&&&",
"@@@@$$$$%%%%****%%%%%%%%************%%%%----============$$$$&&&&",
"@@@@$$$$%%%%$$$$;;;;****%%%%----================----$$$$$$$$&&&&",
"@@@@$$$$%%%%$$$$;;;;****%%%%----================----$$$$$$$$&&&&",
"@@@@$$$$%%%%$$$$;;;;****%%%%----================----$$$$$$$$&&&&",
"@@@@$$$$%%%%$$$$;;;;****%%%%----================----$$$$$$$$&&&&",
"@@@@----%%%%$$$$%%%%----================----$$$$$$$$&&&&&&&&XXXX",
"@@@@----%%%%$$$$%%%%----================----$$$$$$$$&&&&&&&&XXXX",
"@@@@----%%%%$$$$%%%%----================----$$$$$$$$&&&&&&&&XXXX",
"@@@@----%%%%$$$$%%%%----================----$$$$$$$$&&&&&&&&XXXX",
"oooo@@@@----$$$$%%%%----========--------&&&&&&&&&&&&XXXX....XXXX",
"oooo@@@@----$$$$%%%%----========--------&&&&&&&&&&&&XXXX....XXXX",
"oooo@@@@----$$$$%%%%----========--------&&&&&&&&&&&&XXXX....XXXX",
"oooo@@@@----$$$$%%%%----========--------&&&&&&&&&&&&XXXX....XXXX",
"    oooo@@@@----$$$$--------&&&&&&&&&&&&    OOOOooooOOOOoooo    ",
"    oooo@@@@----$$$$--------&&&&&&&&&&&&    OOOOooooOOOOoooo    ",
"    oooo@@@@----$$$$--------&&&&&&&&&&&&    OOOOooooOOOOoooo    ",
"    oooo@@@@----$$$$--------&&&&&&&&&&&&    OOOOooooOOOOoooo    ",
"....OOOOoooo@@@@@@@@&&&&&&&&    XXXXXXXX....ooooOOOO####OOOO    ",
"....OOOOoooo@@@@@@@@&&&&&&&&    XXXXXXXX....ooooOOOO####OOOO    ",
"....OOOOoooo@@@@@@@@&&&&&&&&    XXXXXXXX....ooooOOOO####OOOO    ",
"....OOOOoooo@@@@@@@@&&&&&&&&    XXXXXXXX....ooooOOOO####OOOO    ",
"XXXXooooOOOOOOOO####ooooXXXX....XXXX++++ooooOOOOooooOOOOoooooooo",
"XXXXooooOOOOOOOO####ooooXXXX....XXXX++++ooooOOOOooooOOOOoooooooo",
"XXXXooooOOOOOOOO####ooooXXXX....XXXX++++ooooOOOOooooOOOOoooooooo",
"XXXXooooOOOOOOOO####ooooXXXX....XXXX++++ooooOOOOooooOOOOoooooooo",
"XXXXXXXXooooOOOOOOOOXXXXooooOOOO....++++XXXXooooOOOOOOOOoooooooo",
"XXXXXXXXooooOOOOOOOOXXXXooooOOOO....++++XXXXooooOOOOOOOOoooooooo",
"XXXXXXXXooooOOOOOOOOXXXXooooOOOO....++++XXXXooooOOOOOOOOoooooooo",
"XXXXXXXXooooOOOOOOOOXXXXooooOOOO....++++XXXXooooOOOOOOOOoooooooo"
};
