/* XPM */
static char *c2746050a71f4b559d0172dc9d36c50essBvMsc4t3GMyXyl[] = {
/* columns rows colors chars-per-pixel */
"64 64 8 1 ",
"  c #573F7F",
". c #2C2943",
"X c #2B0178",
"o c #211B31",
"O c #8308E4",
"+ c #1C1421",
"@ c #6006AB",
"# c #06030B",
/* pixels */
"    ....XXXX            XXXX                    XXXX    ....    ",
"    ....XXXX            XXXX                    XXXX    ....    ",
"    ....XXXX            XXXX                    XXXX    ....    ",
"    ....XXXX            XXXX                    XXXX    ....    ",
"....oooooooooooo............oooooooooooo........OOOOoooooooo....",
"....oooooooooooo............oooooooooooo........OOOOoooooooo....",
"....oooooooooooo............oooooooooooo........OOOOoooooooo....",
"....oooooooooooo............oooooooooooo........OOOOoooooooo....",
"    oooo++++++++++++++++++++++++++++++++++++++++++++++++ooooXXXX",
"    oooo++++++++++++++++++++++++++++++++++++++++++++++++ooooXXXX",
"    oooo++++++++++++++++++++++++++++++++++++++++++++++++ooooXXXX",
"    oooo++++++++++++++++++++++++++++++++++++++++++++++++ooooXXXX",
"XXXX@@@@++++########################################++++....    ",
"XXXX@@@@++++########################################++++....    ",
"XXXX@@@@++++########################################++++....    ",
"XXXX@@@@++++########################################++++....    ",
"    oooo++++########################################++++....    ",
"    oooo++++########################################++++....    ",
"    oooo++++########################################++++....    ",
"    oooo++++########################################++++....    ",
"    oooo++++########################################++++....    ",
"    oooo++++########################################++++....    ",
"    oooo++++########################################++++....    ",
"    oooo++++########################################++++....    ",
"    ....++++########################################++++OOOOXXXX",
"    ....++++########################################++++OOOOXXXX",
"    ....++++########################################++++OOOOXXXX",
"    ....++++########################################++++OOOOXXXX",
"    ....++++########################################++++oooo    ",
"    ....++++########################################++++oooo    ",
"    ....++++########################################++++oooo    ",
"    ....++++########################################++++oooo    ",
"    oooo++++########################################++++oooo    ",
"    oooo++++########################################++++oooo    ",
"    oooo++++########################################++++oooo    ",
"    oooo++++########################################++++oooo    ",
"XXXX....++++########################################++++oooo    ",
"XXXX....++++########################################++++oooo    ",
"XXXX....++++########################################++++oooo    ",
"XXXX....++++########################################++++oooo    ",
"    oooo++++########################################++++....    ",
"    oooo++++########################################++++....    ",
"    oooo++++########################################++++....    ",
"    oooo++++########################################++++....    ",
"    ....++++########################################++++....    ",
"    ....++++########################################++++....    ",
"    ....++++########################################++++....    ",
"    ....++++########################################++++....    ",
"    ....++++########################################++++@@@@XXXX",
"    ....++++########################################++++@@@@XXXX",
"    ....++++########################################++++@@@@XXXX",
"    ....++++########################################++++@@@@XXXX",
"XXXXoooo++++++++++++++++++++++++++++++++++++++++++++++++oooo    ",
"XXXXoooo++++++++++++++++++++++++++++++++++++++++++++++++oooo    ",
"XXXXoooo++++++++++++++++++++++++++++++++++++++++++++++++oooo    ",
"XXXXoooo++++++++++++++++++++++++++++++++++++++++++++++++oooo    ",
"....ooooooooOOOOoooo........oooooooo....oooo........oooooooo....",
"....ooooooooOOOOoooo........oooooooo....oooo........oooooooo....",
"....ooooooooOOOOoooo........oooooooo....oooo........oooooooo....",
"....ooooooooOOOOoooo........oooooooo....oooo........oooooooo....",
"    ....    @@@@                    XXXX            XXXX....    ",
"    ....    @@@@                    XXXX            XXXX....    ",
"    ....    @@@@                    XXXX            XXXX....    ",
"    ....    @@@@                    XXXX            XXXX....    "
};
