/* XPM */
static char *ee8ab10ff4c3416bc1585f44bde9a6948rvmtLzc61QgdrKa[] = {
/* columns rows colors chars-per-pixel */
"64 64 193 2 ",
"   c #271707",
".  c #281704",
"X  c #261806",
"o  c #2C1B07",
"O  c #241B0A",
"+  c #2C1D0D",
"@  c #331B04",
"#  c #331D0A",
"$  c #3C1E0A",
"%  c #351701",
"&  c #2F1F10",
"*  c #2C200F",
"=  c #2F280E",
"-  c #35230C",
";  c #3D230C",
":  c #3E2207",
">  c #2E2211",
",  c #2D2812",
"<  c #342312",
"1  c #3B2413",
"2  c #3E2B16",
"3  c #3D2C19",
"4  c #441D0B",
"5  c #4B1D0B",
"6  c #441F05",
"7  c #402106",
"8  c #44220D",
"9  c #49200B",
"0  c #422511",
"q  c #422A13",
"w  c #4A2B12",
"e  c #402B18",
"r  c #6E3F2D",
"t  c #6C3F32",
"y  c #6A3F38",
"u  c #6C411E",
"i  c #6D4124",
"p  c #67432D",
"a  c #6D442A",
"s  c #704326",
"d  c #71452A",
"f  c #674232",
"g  c #694032",
"h  c #7A4E33",
"j  c #7F5336",
"k  c #7E5339",
"l  c #5D3C6D",
"z  c #5F3B67",
"x  c #4F3F7E",
"c  c #5D3B73",
"v  c #5E3B79",
"b  c #583C7E",
"n  c #633B61",
"m  c #613A6F",
"M  c #603973",
"N  c #603771",
"B  c #5A416C",
"V  c #4D427B",
"C  c #594072",
"Z  c #51407B",
"A  c #534077",
"S  c #83532F",
"D  c #864E3E",
"F  c #8A4D3D",
"G  c #815335",
"H  c #82543B",
"J  c #8E5F3E",
"K  c #935F3E",
"L  c #8E603F",
"P  c #874F41",
"I  c #835240",
"U  c #8D5F42",
"Y  c #925F42",
"T  c #8E6043",
"R  c #936042",
"E  c #9C6345",
"W  c #96654C",
"Q  c #9B644A",
"!  c #9C6A4B",
"~  c #8F6956",
"^  c #946B52",
"/  c #9A6B51",
"(  c #9B6F5A",
")  c #936B57",
"_  c #927057",
"`  c #90705A",
"'  c #9D715B",
"]  c #A36A45",
"[  c #A1674A",
"{  c #A06B4A",
"}  c #AC755C",
"|  c #A47A5B",
" . c #AD7C5E",
".. c #AA7857",
"X. c #B0735C",
"o. c #B47C5E",
"O. c #B9795F",
"+. c #A06851",
"@. c #9E7C63",
"#. c #A77762",
"$. c #AB7560",
"%. c #A27962",
"&. c #AB7D64",
"*. c #A67E6A",
"=. c #AD7E6C",
"-. c #B47B64",
";. c #B47B6B",
":. c #B9786B",
">. c #B77765",
",. c #A67E7E",
"<. c #A97D7D",
"1. c #AD7E72",
"2. c #BB7F75",
"3. c #B87871",
"4. c #BA8D5E",
"5. c #9E826D",
"6. c #9D8172",
"7. c #AB8065",
"8. c #A2816C",
"9. c #AD806C",
"0. c #AF8D6E",
"q. c #B58566",
"w. c #B98466",
"e. c #BA8C63",
"r. c #B5846C",
"t. c #BA846C",
"y. c #B6896A",
"u. c #B38A6D",
"i. c #B6896C",
"p. c #B58A6C",
"a. c #BC8A6C",
"s. c #B78B66",
"d. c #A68273",
"f. c #A88372",
"g. c #AD8B73",
"h. c #A78B7A",
"j. c #AA857A",
"k. c #B38472",
"l. c #BB8473",
"z. c #B28A70",
"x. c #B68A72",
"c. c #BC8A72",
"v. c #BB8C72",
"b. c #BD8E72",
"n. c #BC8F72",
"m. c #BE8D72",
"M. c #B98E75",
"N. c #BD8E74",
"B. c #BD8D75",
"V. c #BB8B73",
"C. c #B5837B",
"Z. c #BA847B",
"A. c #B38B7C",
"S. c #BA897A",
"D. c #B89076",
"F. c #B79174",
"G. c #C08866",
"H. c #C2876A",
"J. c #C6967F",
"K. c #C0987F",
"L. c #4F3E84",
"P. c #4F3F89",
"I. c #533D85",
"U. c #583B85",
"Y. c #533C8B",
"T. c #5A3989",
"R. c #5B3684",
"E. c #563993",
"W. c #583896",
"Q. c #4D4084",
"!. c #524083",
"~. c #A67D82",
"^. c #AC8582",
"/. c #AE8989",
"(. c #B28B83",
"). c #B58A8B",
"_. c #B08386",
"`. c #B38991",
"'. c #C09781",
"]. c #C79780",
"[. c #C69783",
"{. c #C79882",
"}. c #FFF3DF",
"|. c #FFF4E6",
" X c #FFF6EB",
".X c #FFF8EC",
"XX c #FDECF9",
"oX c #FFF5F3",
"OX c #FFFBF4",
"+X c #F4F3FF",
"@X c #FDF4FF",
"#X c #F6FFFE",
"$X c #FDFEFE",
/* pixels */
"+ + & & < < & & + + + + + + + + & & & & & & > > + + O O O O O O X X X X X X X X O O O O O O O O & + + + + + + + + + + + + + + + ",
"+ + # + < < & & + + + + + + + + & & & & & & > > + + O O O O O O X X X X X X X X O O O O O O O O & + + + + + + + + + + + + + + + ",
"+ + + + + + & & + + + + + + + + & & & & & & > > + + + O + + + + X X X X X X X X O O O O O O O O & + + + + + + + + + + + + + + + ",
"+ + + + + + + + + + + + + + + + & & & & & & > & + + + O + + + + X X X X X X X X O O O O O O O X * + + + + + + + + + + + + + + + ",
"+ + + & + + # # + + + + + + + + + + & & < < * * O O + + + + + + . . . . . . . . X X X X X X X X + + + + + + + + + + + + + + + + ",
"+ + + & + + # # + + + + + + + + + + # # & < * * O O + + + + O + . .   .   . . . X X X X X X X X + + + + + + + + + + + + + + + + ",
"+ + & & & & & & + + + + + + + + + + + # & & & & O O + + + + + + . .   . . . . . O X O X O O O X + + + + + + + + + + + + + + + + ",
"+ + & & & & & < + + + + + + + + + + + + & & & & O O + + + + + +     . . . . . . O O O O O O O O + + + + + + + + + + + + + + + + ",
"+ + + + + + + + + + + + + + + + + + + + + + + + < < < < < < < < 3 2 e 2 2 2 3 3 3 3 3 3 3 3 3 3 + + + + + + + + + + + + + + + + ",
"+ + + + + + + + + + + + + + + + + + + + + + + + < < < < < < < < 2 2 2 2 2 2 2 2 2 2 2 2 2 2 3 3 + + + + + + + + + + + + + + + + ",
"+ + + + + + + + + + + + + + + + + + + + + + + + < < < < < < < - 2 q q q q 2 q 2 2 2 2 2 2 2 2 2 + + + + + + + + + + + + + + O O ",
"+ + + + + + + + + + + + + + + + + + + + + + + + < < < < < < < - e e e q e e e e e e e e e e e e + + + + + + + + + + + + + + O O ",
"+ + + + + + + + + + + + + + + + + + + + + + + + < < < < < < < 1 q q q q q q q q q q q q q q q 2 + + + + + + + + + + O O O O O O ",
"+ + + + + + + + + + + + + + + + + + + + + + + + < < < < < < < - q q q q q q q q q q q q q q q 2 + + + + + + + + + + O O O O O O ",
"+ + + + + + + + + + + + + + + + + + + + + + + + < < < < < < < - q w q q w w w w q q e e e e e e + + + + + + + + + + O O O O O O ",
"+ + + + + + + # - - - $ $ $ $ - - - - - - - - - 1 1 1 1 0 0 0 0 w w w w w w w w w w w w w w w w @ @ $ $ $ $ # # o o O O + + + + ",
"+ + + + + + # @ g.g.z.z.u.z.z.z.D.F.D.D.D.D.D.D.K.K.'.'.'.'.'.'.V.v.M.M.M.M.M.v.D.M.M.M.M.M.D.F.| | | | } #.%.@.; - - - < < 1 1 ",
"+ * + & + + # @ g.z.i.y.y.y.t.i.a.a.a.a.b.b.N.N.J.J.J.J.J.J.].J.V.V.V.V.b.b.V.V.b.b.b.b.b.b.b.a.....} } X.} } %.: - - = < < 1 1 ",
"+ + + + + + + @ g.z.u.y.y.y.i.i.b.b.b.b.b.b.N.N.].].].].].].].].V.V.V.b.b.b.v.v.b.b.b.b.b.b.b.a.....} X.X.} #.%.; - = , , < < < ",
"+ + + + + + + @ g.g.u.y.y.y.i.i.b.b.b.b.b.b.N.N.].].].].].].].].V.V.V.b.b.b.v.v.b.b.b.b.b.b.b.b...} } X.X.$.#.%.; - = , , , < < ",
"+ + + + + + o @ g.0.u.u.y.y.i.i.D.b.b.b.N.N.N.N.J.J.].].].].].].x.x.V.N.N.N.v.v.N.N.N.N.b.b.b.b.} } } X.X.$.#.%.; - = , , , , < ",
"+ + * + + + # @ g.0.u.y.y.i.u.i.N.b.b.b.N.N.N.N.J.J.].].].].].].V.x.V.N.N.N.v.v.N.N.N.N.b.b.b.b.} } } X.$.$.#.%.; - - , , , < < ",
"@ o o + + # @ @ g.u.u.y.i.i.u.i.N.N.N.N.N.N.N.N.{.{.{.{.].].].{.V.V.M.M.M.M.V.V.N.N.N.N.N.N.N.b.} } } } } $.%.%.7 ; - - - - < < ",
"@ @ @ o @ @ % % z.u.i.y.i.i.x.x.N.N.N.N.N.N.N.N.{.{.{.{.[.[.[.[.V.V.M.M.M.M.V.V.N.N.N.N.N.N.N.b.} } } } } } #.%.6 7 : ; ; ; ; ; ",
"8.8.5.5.8.8.8.*.r.r.r.r.r.r.r.r.&.&.&.&.&.&.&.&.9.9.=.=.=.=.=.=.' ' ' ' ' ' ' ' V.V.V.V.V.V.V.V.! ! ! ! ! ! ! ! / ^ ^ ^ / / / / ",
"*.*.8.8.8.*.*.&.r.r.r.r.r.r.r.r.&.&.&.&.&.&.&.&.9.9.=.=.=.=.=.=.' ' ' ' ' ' ' ' x.x.x.x.x.x.V.a.! ! ! ! ! ! ! ! ! ! ! ! / / / / ",
"&.&.*.*.*.*.&.&.r.r.t.t.t.t.r.r.&.&.&.&.&.&.&.&.=.=.=.=.=.=.=.=.' ' ' ' ' ' ' ' x.x.x.x.x.x.x.a.! ! ! ! ! ! ! ! ! [ ! ! [ ! ! [ ",
"&.&.&.&.*.*.&.&.r.r.t.t.t.t.k.k.&.&.&.&.&.&.&.&.=.=.=.=.=.=.=.9.' ' ' ' ' ' ' ' x.x.x.x.V.V.V.V.! ! ! ! ! ! ! ! ! [ [ [ [ [ [ [ ",
"&.&.&.&.*.*.&.&.r.r.w.w.r.r.k.r.&.&.&.&.&.&.&.&.9.9.9.9.=.=.=.9.' ' ' ' ' ' ' ' x.x.x.x.l.x.x.V.! ! ! ! ! ! ! ! ! [ [ [ [ [ [ [ ",
"&.&.&.&.*.*.&.&.r.r.t.t.r.r.z.z.&.&.&.&.&.&.&.&.9.9.9.9.=.=.=.=.' ' ' ' ' ' ' ' x.x.x.x.l.l.l.l.! ! ! ! ! ! ! ! ! [ [ [ [ ! ! ! ",
" .&.&.&.*.*.*.&.r.r.r.r.r.r.z.z.&.&.&.&.&.&.&.&.9.9.9.9.1.1.=.1.' ' ' ' ' ' ( ( V.V.x.x.x.x.x.V.+.[ ! ! ! ! ! ! ! ! ! ! ! ! ! ! ",
"&.&.&.&.&.&.&.*.9.f.f.f.f.f.d.j.,.~.,.,.,.~.~.<.1.=.=.;.1.1.=.9.( ' ( ( ( / / ( ).`.).).).).).).) ) ) ~ ~ ~ ~ ^ / / ! ! ! ! / ^ ",
"r.r.q.q.w.r.r.g.|.OXOXoXOXOX XXXl c l B C c c n <.=.;.:.3.:.;.&.x.x.x.l.l.t.s.A.n v c B c l M n oX.XOXOXOXOXoX|.8.&.&.&.&.&.*.*.",
"z.r.q.w.w.w.r.h.oX$X$X$X$X$X$XXXb Y.I.!.I.I.T.M <.-.;.:.3.:.-.-.x.x.x.l.l.a.e.(.M W.I.!.I.I.U.C @XOX$X$X$X$X$XOX6.*.&.&.&.&.*.*.",
"z.r.r.w.w.r.z.h.OX$X$X$X$X$X$X+Xx Y.I.L.Q.I.T.l ,.-.;.:.:.:.>.-.x.x.V.l.l.V.s.(.v E.I.Q.Q.!.I.A $X$X$X$X$X$X$XOX6.8.&.&.&.&.&.*.",
"z.k.r.w.w.r.g.h.OX$X$X#X#X$X#X+XZ Y.L.Q.Q.I.T.l ,.&.;.:.:.:.-.o.x.x.x.V.l.V.s.(.c Y.Q.Q.Q.Q.I.A $X$X$X$X$X$X$XOX6.8.&. .&.&.&.&.",
"k.k.r.w.w.r.g.h.OX$X$X#X#X$X#X+XV P.Q.V Q.L.U.l ,.=.;.:.:.;.o.o.x.x.V.l.l.V.p./.c Y.I.Q.Q.Q.I.V $X$X$X$X$X$X$XOX6.*.&. . .&.&.&.",
"k.k.r.r.w.r.g.h..XOX$X$X$X#XOX+Xx Y.I.L.L.I.U.l ~.=.;.;.;.-.o.o.a.x.V.l.Z.S.x./.c Y.I.I.Q.I.Y.Z $X$X$X$X$X$X$X.Xd.*.&. . .&.&.&.",
"k.r.r.r.w.r.z.g. XOXOXOXOXOXOX@XU.W.E.Y.Y.T.R.N ~.1.;.:.;.-.-.o.a.a.V.V.Z.S.S.`.M T.T.Y.E.E.W.U.@XOXOXOXOXOXOX X8.7.&.&.&.&.&.&.",
"r.r.w.w.w.t.r.g.|. X.X X.X.X|.XXl v v c c c N n <.=.;.;.;.;.&.7.v.M.V.S.S.S.S.).n M l l c c M l oX.X.X.X X.X|.}.8.7.7.&.&.&.&.7.",
"W W E E E W W W 9.f.d.d.d.d.d.d.j.^.^.^.^.^.`._.a i r r t t t g g t t r r a i i (.).(.A.A.A.A.A._ _ _ ` ` ` ` ^ k k G G H k k k ",
"E E E E E E W W -.;.=.=.=.=.=.=.q.q.q.r.r.z.C.C.i i a t t t y y g y t g p a u u x.x.s.e.e.4.4.e.! ! ! ! / / / / G G G G k k k k ",
"E E E E E E E Q -.-.-.-.-.-.-.-.t.t.l.l.k.l.C.C.a i g g g g y g f f g g g p i i x.x.a.a.a.G.G.G.] ] ] { { ! ! ! G G G G k k k k ",
"E E E E E E E E O.O.O.O.>.>.-.-.2.2.2.2.l.l.Z.C.r a g g g g f f f f f f p p r r x.V.a.H.H.H.H.H.] ] ] ] ] ] ] { G G G j k k j j ",
"E E E E E Q Q E O.O.O.O.>.>.>.-.:.2.2.2.l.l.Z.C.r a g f p p g g p g f f g g r r V.a.H.H.H.H.H.H.] ] ] ] ] ] ] { G G G j j j j j ",
"E E E Q Q W Q Q O.o.O.O.O.-.-.-.t.l.2.2.l.l.C.C.a a g f p a g g p p g g g g t r a.a.H.H.H.H.a.a.{ ] ] ] ] ] ] { G G G j j G G G ",
"E E E Q W W W W o.o.o.o.o.&.&.&.r.k.C.C.r.t.k.k.a a g f a a p p p p g g g g y r a.a.a.H.a.a.V.a.! { { ] ] ] ] ! G G G j G G S S ",
"Q E Q W W W W W o.o.o.o.o.&.&.&.r.z.k.k.z.k.k.k.a a g t a a r r r r r t t t t r x.y.a.a.a.x.x.x./ ! ! { { { { ! G G G G G G G G ",
"Y Y Y Y Y Y Y Y Y Y Y K K K K U 6 8 8 8 8 8 4 6 H D D D D D D D D D D D D D P I 5 5 9 9 9 9 9 9 R K K J J J J U G G G H G G G G ",
"Y Y Y Y Y Y Y Y Y Y Y Y K K K Y 6 8 8 8 8 8 4 4 H D D F F F F F F F F F F F D H 5 5 9 8 8 8 8 9 R K K J J J U U G G H H H H H H ",
"U U Y Y Y Y Y Y Y R Y Y K K K Y 5 8 8 8 8 8 4 5 H D F F F F F F F D F F F D D H 5 9 8 8 8 8 9 9 T K L J J J U U G G H H H H H H ",
"U U Y Y Y Y Y Y Y R Y Y K K K Y 5 8 8 8 8 4 6 5 D P F D F F F F F D F F D D D H 5 9 8 8 8 8 9 9 T K L J J J U U G G H H H H H H ",
"U U U U Y Y Y Y Y R R R R Y K Y 5 4 4 4 4 4 6 5 D D D F F F F F D D D D D D D H 5 8 8 8 8 8 8 9 T L L J U J J J G G H H H H H H ",
"U U U U Y Y U Y Y R R R R Y Y Y 6 4 4 4 4 4 6 5 D D D D F F F D D D D D D D H H 5 9 8 8 8 8 8 9 T L L J U U J J G G H H H H H H ",
"U U U U U U U U Y R R R R R Y U 6 4 8 4 8 8 6 5 D D D D D D D D H I I P D D I I 5 8 8 8 8 8 9 9 T U U U U U U U G G H H H H H H ",
"U U U U U U U U T R R R R R R U 6 8 8 8 8 8 4 6 H H D D D D H H H I I I H D I I 9 8 8 8 8 8 9 9 T U U U U U U U G G H H k H H H ",
"d d d d d d d d s s s s s s s a 8 8 ; ; ; ; 8 8 6 5 5 5 5 5 5 4 9 9 5 5 5 5 5 5 8 8 8 8 8 8 8 9 H H H H H H H H h h h h h h h h ",
"d d d d d d d d s s s s s s i a 8 ; ; ; ; ; ; 8 4 6 4 5 4 6 6 4 9 9 5 5 5 5 5 9 8 8 8 8 8 8 8 9 H H H H H H H H h h h h h h h h ",
"d d d d d d d d a a a a a a i a 8 ; ; ; ; ; ; ; 4 4 4 6 4 4 4 4 0 0 8 9 5 5 5 9 8 8 8 8 8 8 8 9 H H H H H H H H h h h h h h h h ",
"d d d d d d d d a a a a a a i a 8 ; ; ; ; ; ; ; $ 4 4 4 4 4 $ $ 0 0 8 8 5 9 9 8 8 8 8 8 8 8 8 9 H H H H H H H H h h h h h h h h ",
"a a a d d d a a a a a a a a a p 8 8 ; ; ; ; ; ; $ 4 4 4 4 4 $ $ 0 0 8 8 9 9 9 8 8 8 8 8 8 8 8 9 H H H H H H H H h h h h h h h h ",
"a a a a d d a a a a a a a a a p 8 8 ; ; ; ; ; 8 4 4 4 4 4 4 $ $ 0 0 8 8 8 8 8 8 8 8 8 8 8 8 8 9 H H H H H H H H h h h h h h h h ",
"a a a a a a a a a a a a a a a a 6 4 8 8 8 8 ; 8 4 4 4 4 4 4 $ $ 0 0 8 8 8 0 8 8 8 8 8 8 8 8 8 9 H H H H H H H H h h h h h h h h ",
"a a a a a a a a a a a a a a a a 6 4 8 8 8 8 8 8 4 4 4 4 4 4 4 $ 0 0 8 8 0 0 8 8 8 8 8 8 8 8 8 9 H H H H H H H H h h h h h h h h "
};
