/* XPM */
static char *_60379504f4944c7a99924a7b2d0366fGGUNAA8qSTuKWfGh[] = {
/* columns rows colors chars-per-pixel */
"64 64 106 2 ",
"   c #24DADA",
".  c #0B7C82",
"X  c #2A3C4D",
"o  c #293C4D",
"O  c #2A4455",
"+  c #324F62",
"@  c #263F4F",
"#  c #2C4758",
"$  c #38576B",
"%  c #365468",
"&  c #334E61",
"*  c #2E4254",
"=  c #2C6272",
"-  c #0CAAAB",
";  c #30F2F2",
":  c #20999D",
">  c #125A60",
",  c #2E3244",
"<  c #282F40",
"1  c #223A49",
"2  c #233B4A",
"3  c #28414F",
"4  c #2D4856",
"5  c #2B4554",
"6  c #263F4D",
"7  c #283C4B",
"8  c #303446",
"9  c #25404F",
"0  c #10777A",
"q  c #28AAAE",
"w  c #273D4E",
"e  c #253848",
"r  c #3A5A6F",
"t  c #2E4A5C",
"y  c #3D5E72",
"u  c #46697A",
"i  c #436678",
"p  c #3C5C71",
"a  c #375468",
"s  c #213241",
"d  c #304C5E",
"f  c #2D3647",
"g  c #2B4657",
"h  c #314D5F",
"j  c #345162",
"k  c #334F61",
"l  c #395367",
"z  c #2C3547",
"x  c #406278",
"c  c #3F6076",
"v  c #365569",
"b  c #39586B",
"n  c #284151",
"m  c #314D5E",
"M  c #436474",
"N  c #243C4B",
"B  c #3D5B6F",
"V  c #2A3E4F",
"C  c #3B576A",
"Z  c #446677",
"A  c #294353",
"S  c #435E6E",
"D  c #191522",
"F  c #232937",
"G  c #274150",
"H  c #274050",
"J  c #405E6F",
"K  c #1E2432",
"L  c #293344",
"P  c #446676",
"I  c #253E4E",
"U  c #436373",
"Y  c #243646",
"T  c #345164",
"R  c #466172",
"E  c #2A2C3D",
"W  c #203442",
"Q  c #435E70",
"!  c #22313F",
"~  c #3A5267",
"^  c #292B3B",
"/  c #1D4D58",
"(  c #27404E",
")  c #3C576A",
"_  c #416273",
"`  c #364D61",
"'  c #344C5F",
"]  c #1F404C",
"[  c #1C545E",
"{  c #20C3C3",
"}  c #0B6B6F",
"|  c #252636",
" . c #272838",
".. c #272E3E",
"X. c #1E3442",
"o. c #253D4C",
"O. c #1C3D49",
"+. c #0C9898",
"@. c #2AD9D9",
"#. c #26E5E6",
"$. c #067E83",
"%. c #182C39",
"&. c #1D3240",
"*. c #124752",
"=. c #0DB3B5",
"-. c #33FFFF",
/* pixels */
"        . . . . X X X X o o o o O O O O + + + + @ @ @ @ # # # # $ $ $ $ $ $ $ $ % % % % & & & & * * * * = = = = - - - - ; ; ; ; ",
"        . . . . X X X X o o o o O O O O + + + + @ @ @ @ # # # # $ $ $ $ $ $ $ $ % % % % & & & & * * * * = = = = - - - - ; ; ; ; ",
"        . . . . X X X X o o o o O O O O + + + + @ @ @ @ # # # # $ $ $ $ $ $ $ $ % % % % & & & & * * * * = = = = - - - - ; ; ; ; ",
"        . . . . X X X X o o o o O O O O + + + + @ @ @ @ # # # # $ $ $ $ $ $ $ $ % % % % & & & & * * * * = = = = - - - - ; ; ; ; ",
": : : : > > > > , , , , < < < < 1 1 1 1 2 2 2 2 3 3 3 3 4 4 4 4 4 4 4 4 5 5 5 5 6 6 6 6 7 7 7 7 8 8 8 8 9 9 9 9 0 0 0 0 q q q q ",
": : : : > > > > , , , , < < < < 1 1 1 1 2 2 2 2 3 3 3 3 4 4 4 4 4 4 4 4 5 5 5 5 6 6 6 6 7 7 7 7 8 8 8 8 9 9 9 9 0 0 0 0 q q q q ",
": : : : > > > > , , , , < < < < 1 1 1 1 2 2 2 2 3 3 3 3 4 4 4 4 4 4 4 4 5 5 5 5 6 6 6 6 7 7 7 7 8 8 8 8 9 9 9 9 0 0 0 0 q q q q ",
": : : : > > > > , , , , < < < < 1 1 1 1 2 2 2 2 3 3 3 3 4 4 4 4 4 4 4 4 5 5 5 5 6 6 6 6 7 7 7 7 8 8 8 8 9 9 9 9 0 0 0 0 q q q q ",
"w w w w e e e e r r r r t t t t r r r r y y y y u u u u u u u u u u u u u u u u u u u u i i i i p p p p a a a a s s s s d d d d ",
"w w w w e e e e r r r r t t t t r r r r y y y y u u u u u u u u u u u u u u u u u u u u i i i i p p p p a a a a s s s s d d d d ",
"w w w w e e e e r r r r t t t t r r r r y y y y u u u u u u u u u u u u u u u u u u u u i i i i p p p p a a a a s s s s d d d d ",
"w w w w e e e e r r r r t t t t r r r r y y y y u u u u u u u u u u u u u u u u u u u u i i i i p p p p a a a a s s s s d d d d ",
"o o o o f f f f y y y y g g g g d d d d d d d d h h h h j j j j j j j j j j j j k k k k t t t t d d d d l l l l z z z z x x x x ",
"o o o o f f f f y y y y g g g g d d d d d d d d h h h h j j j j j j j j j j j j k k k k t t t t d d d d l l l l z z z z x x x x ",
"o o o o f f f f y y y y g g g g d d d d d d d d h h h h j j j j j j j j j j j j k k k k t t t t d d d d l l l l z z z z x x x x ",
"o o o o f f f f y y y y g g g g d d d d d d d d h h h h j j j j j j j j j j j j k k k k t t t t d d d d l l l l z z z z x x x x ",
"@ @ @ @ 3 3 3 3 u u u u d d d d c c c c r r r r y y y y u u u u u u u u u u u u i i i i v v v v h h h h b b b b 1 1 1 1 x x x x ",
"@ @ @ @ 3 3 3 3 u u u u d d d d c c c c r r r r y y y y u u u u u u u u u u u u i i i i v v v v h h h h b b b b 1 1 1 1 x x x x ",
"@ @ @ @ 3 3 3 3 u u u u d d d d c c c c r r r r y y y y u u u u u u u u u u u u i i i i v v v v h h h h b b b b 1 1 1 1 x x x x ",
"@ @ @ @ 3 3 3 3 u u u u d d d d c c c c r r r r y y y y u u u u u u u u u u u u i i i i v v v v h h h h b b b b 1 1 1 1 x x x x ",
"n n n n 4 4 4 4 u u u u h h h h y y y y g g g g t t t t g g g g h h h h m m m m g g g g t t t t j j j j M M M M N N N N x x x x ",
"n n n n 4 4 4 4 u u u u h h h h y y y y g g g g t t t t g g g g h h h h m m m m g g g g t t t t j j j j M M M M N N N N x x x x ",
"n n n n 4 4 4 4 u u u u h h h h y y y y g g g g t t t t g g g g h h h h m m m m g g g g t t t t j j j j M M M M N N N N x x x x ",
"n n n n 4 4 4 4 u u u u h h h h y y y y g g g g t t t t g g g g h h h h m m m m g g g g t t t t j j j j M M M M N N N N x x x x ",
"n n n n 4 4 4 4 u u u u j j j j u u u u h h h h B B B B V V V V C C C C u u u u h h h h y y y y j j j j Z Z Z Z A A A A x x x x ",
"n n n n 4 4 4 4 u u u u j j j j u u u u h h h h B B B B V V V V C C C C u u u u h h h h y y y y j j j j Z Z Z Z A A A A x x x x ",
"n n n n 4 4 4 4 u u u u j j j j u u u u h h h h B B B B V V V V C C C C u u u u h h h h y y y y j j j j Z Z Z Z A A A A x x x x ",
"n n n n 4 4 4 4 u u u u j j j j u u u u h h h h B B B B V V V V C C C C u u u u h h h h y y y y j j j j Z Z Z Z A A A A x x x x ",
"n n n n 4 4 4 4 u u u u j j j j u u u u j j j j S S S S D D D D F F F F i i i i j j j j u u u u j j j j Z Z Z Z G G G G r r r r ",
"n n n n 4 4 4 4 u u u u j j j j u u u u j j j j S S S S D D D D F F F F i i i i j j j j u u u u j j j j Z Z Z Z G G G G r r r r ",
"n n n n 4 4 4 4 u u u u j j j j u u u u j j j j S S S S D D D D F F F F i i i i j j j j u u u u j j j j Z Z Z Z G G G G r r r r ",
"n n n n 4 4 4 4 u u u u j j j j u u u u j j j j S S S S D D D D F F F F i i i i j j j j u u u u j j j j Z Z Z Z G G G G r r r r ",
"H H H H 5 5 5 5 u u u u k k k k i i i i k k k k J J J J K K K K L L L L r r r r j j j j u u u u j j j j P P P P 2 2 2 2 d d d d ",
"H H H H 5 5 5 5 u u u u k k k k i i i i k k k k J J J J K K K K L L L L r r r r j j j j u u u u j j j j P P P P 2 2 2 2 d d d d ",
"H H H H 5 5 5 5 u u u u k k k k i i i i k k k k J J J J K K K K L L L L r r r r j j j j u u u u j j j j P P P P 2 2 2 2 d d d d ",
"H H H H 5 5 5 5 u u u u k k k k i i i i k k k k J J J J K K K K L L L L r r r r j j j j u u u u j j j j P P P P 2 2 2 2 d d d d ",
"I I I I 6 6 6 6 u u u u t t t t v v v v t t t t r r r r v v v v t t t t v v v v k k k k i i i i j j j j U U U U Y Y Y Y r r r r ",
"I I I I 6 6 6 6 u u u u t t t t v v v v t t t t r r r r v v v v t t t t v v v v k k k k i i i i j j j j U U U U Y Y Y Y r r r r ",
"I I I I 6 6 6 6 u u u u t t t t v v v v t t t t r r r r v v v v t t t t v v v v k k k k i i i i j j j j U U U U Y Y Y Y r r r r ",
"I I I I 6 6 6 6 u u u u t t t t v v v v t t t t r r r r v v v v t t t t v v v v k k k k i i i i j j j j U U U U Y Y Y Y r r r r ",
"N N N N 6 6 6 6 u u u u g g g g d d d d h h h h j j j j j j j j j j j j k k k k T T T T r r r r j j j j R R R R E E E E O O O O ",
"N N N N 6 6 6 6 u u u u g g g g d d d d h h h h j j j j j j j j j j j j k k k k T T T T r r r r j j j j R R R R E E E E O O O O ",
"N N N N 6 6 6 6 u u u u g g g g d d d d h h h h j j j j j j j j j j j j k k k k T T T T r r r r j j j j R R R R E E E E O O O O ",
"N N N N 6 6 6 6 u u u u g g g g d d d d h h h h j j j j j j j j j j j j k k k k T T T T r r r r j j j j R R R R E E E E O O O O ",
"W W W W 7 7 7 7 i i i i t t t t r r r r y y y y u u u u u u u u u u u u i i i i r r r r v v v v k k k k Q Q Q Q E E E E O O O O ",
"W W W W 7 7 7 7 i i i i t t t t r r r r y y y y u u u u u u u u u u u u i i i i r r r r v v v v k k k k Q Q Q Q E E E E O O O O ",
"W W W W 7 7 7 7 i i i i t t t t r r r r y y y y u u u u u u u u u u u u i i i i r r r r v v v v k k k k Q Q Q Q E E E E O O O O ",
"W W W W 7 7 7 7 i i i i t t t t r r r r y y y y u u u u u u u u u u u u i i i i r r r r v v v v k k k k Q Q Q Q E E E E O O O O ",
"! ! ! ! 8 8 8 8 p p p p d d d d h h h h j j j j j j j j j j j j j j j j k k k k d d d d t t t t d d d d ~ ~ ~ ~ ^ ^ ^ ^ I I I I ",
"! ! ! ! 8 8 8 8 p p p p d d d d h h h h j j j j j j j j j j j j j j j j k k k k d d d d t t t t d d d d ~ ~ ~ ~ ^ ^ ^ ^ I I I I ",
"! ! ! ! 8 8 8 8 p p p p d d d d h h h h j j j j j j j j j j j j j j j j k k k k d d d d t t t t d d d d ~ ~ ~ ~ ^ ^ ^ ^ I I I I ",
"! ! ! ! 8 8 8 8 p p p p d d d d h h h h j j j j j j j j j j j j j j j j k k k k d d d d t t t t d d d d ~ ~ ~ ~ ^ ^ ^ ^ I I I I ",
"/ / / / ( ( ( ( ~ ~ ~ ~ ~ ~ ~ ~ ) ) ) ) M M M M Z Z Z Z Z Z Z Z Z Z Z Z _ _ _ _ a a a a ` ` ` ` * * * * ' ' ' ' ] ] ] ] [ [ [ [ ",
"/ / / / ( ( ( ( ~ ~ ~ ~ ~ ~ ~ ~ ) ) ) ) M M M M Z Z Z Z Z Z Z Z Z Z Z Z _ _ _ _ a a a a ` ` ` ` * * * * ' ' ' ' ] ] ] ] [ [ [ [ ",
"/ / / / ( ( ( ( ~ ~ ~ ~ ~ ~ ~ ~ ) ) ) ) M M M M Z Z Z Z Z Z Z Z Z Z Z Z _ _ _ _ a a a a ` ` ` ` * * * * ' ' ' ' ] ] ] ] [ [ [ [ ",
"/ / / / ( ( ( ( ~ ~ ~ ~ ~ ~ ~ ~ ) ) ) ) M M M M Z Z Z Z Z Z Z Z Z Z Z Z _ _ _ _ a a a a ` ` ` ` * * * * ' ' ' ' ] ] ] ] [ [ [ [ ",
"{ { { { } } } } | | | |  . . . .........X.X.X.X.2 2 2 2 o.o.o.o.A A A A H H H H Y Y Y Y ^ ^ ^ ^ | | | | O.O.O.O.+.+.+.+.@.@.@.@.",
"{ { { { } } } } | | | |  . . . .........X.X.X.X.2 2 2 2 o.o.o.o.A A A A H H H H Y Y Y Y ^ ^ ^ ^ | | | | O.O.O.O.+.+.+.+.@.@.@.@.",
"{ { { { } } } } | | | |  . . . .........X.X.X.X.2 2 2 2 o.o.o.o.A A A A H H H H Y Y Y Y ^ ^ ^ ^ | | | | O.O.O.O.+.+.+.+.@.@.@.@.",
"{ { { { } } } } | | | |  . . . .........X.X.X.X.2 2 2 2 o.o.o.o.A A A A H H H H Y Y Y Y ^ ^ ^ ^ | | | | O.O.O.O.+.+.+.+.@.@.@.@.",
"#.#.#.#.$.$.$.$.%.%.%.%.&.&.&.&.O O O O O O O O O O O O d d d d x x x x x x x x r r r r I I I I %.%.%.%.*.*.*.*.=.=.=.=.-.-.-.-.",
"#.#.#.#.$.$.$.$.%.%.%.%.&.&.&.&.O O O O O O O O O O O O d d d d x x x x x x x x r r r r I I I I %.%.%.%.*.*.*.*.=.=.=.=.-.-.-.-.",
"#.#.#.#.$.$.$.$.%.%.%.%.&.&.&.&.O O O O O O O O O O O O d d d d x x x x x x x x r r r r I I I I %.%.%.%.*.*.*.*.=.=.=.=.-.-.-.-.",
"#.#.#.#.$.$.$.$.%.%.%.%.&.&.&.&.O O O O O O O O O O O O d d d d x x x x x x x x r r r r I I I I %.%.%.%.*.*.*.*.=.=.=.=.-.-.-.-."
};
