/* XPM */
static char *xpm_[] = {
/* columns rows colors chars-per-pixel */
"64 64 250 2 ",
"   c black",
".  c #010000",
"X  c #000100",
"o  c #010100",
"O  c #010101",
"+  c #020001",
"@  c #000200",
"#  c #000300",
"$  c #010300",
"%  c #000002",
"&  c #010002",
"*  c #010103",
"=  c #030002",
"-  c #020003",
";  c #010302",
":  c #020202",
">  c gray1",
",  c #040203",
"<  c #000400",
"1  c #020401",
"2  c #010004",
"3  c #030004",
"4  c #020005",
"5  c #030005",
"6  c #020204",
"7  c #030305",
"8  c #040004",
"9  c #040005",
"0  c #050005",
"q  c #040205",
"w  c #050006",
"e  c #040007",
"r  c #060007",
"t  c #060009",
"y  c #070009",
"u  c #07000B",
"i  c #08000B",
"p  c #08000C",
"a  c #0A000C",
"s  c #0B000D",
"d  c #0A000E",
"f  c #0B000E",
"g  c #0B000F",
"h  c #0C000F",
"j  c #0C0011",
"k  c #0E0011",
"l  c #140718",
"z  c #150619",
"x  c #17051B",
"c  c #18051B",
"v  c #18041D",
"b  c #190C1D",
"n  c #111612",
"m  c #151712",
"M  c #111514",
"N  c #131514",
"B  c #151714",
"V  c #161614",
"C  c #171516",
"Z  c #151716",
"A  c #161616",
"S  c gray9",
"D  c #131811",
"F  c #121911",
"G  c #131812",
"H  c #121912",
"J  c #111B12",
"K  c #111B13",
"L  c #131A13",
"P  c #101C10",
"I  c #101C12",
"U  c #131814",
"Y  c #161817",
"T  c #171518",
"R  c #161618",
"E  c #161719",
"W  c #171719",
"Q  c #16151A",
"!  c #17151A",
"~  c #17141B",
"^  c #1A131A",
"/  c #1A131B",
"(  c #1C121B",
")  c #191418",
"_  c #19141A",
"`  c #19141B",
"'  c #1A121D",
"]  c #1C121D",
"[  c #1C111F",
"{  c #1D111F",
"}  c #1C0A20",
"|  c #1D0922",
" . c #1C0A22",
".. c #1E0F22",
"X. c #1D0924",
"o. c #1F0824",
"O. c #1D1021",
"+. c #1E1021",
"@. c #200E24",
"#. c #210D26",
"$. c #210D28",
"%. c #230C28",
"&. c #231B26",
"*. c #221D24",
"=. c #221C26",
"-. c #231B28",
";. c #251A28",
":. c #26192A",
">. c #251A2A",
",. c #975EA2",
"<. c #975EA3",
"1. c #995DA3",
"2. c #9A5DA3",
"3. c #9B5BA5",
"4. c #9B5BA7",
"5. c #995DA5",
"6. c #9A5CA5",
"7. c #9B5FA5",
"8. c #9B5FA7",
"9. c #9C5EA7",
"0. c #9B5BA9",
"q. c #9D58AB",
"w. c #9D5DA9",
"e. c #9C5EA9",
"r. c #9D5DAB",
"t. c #9E59AC",
"y. c #9E5AAD",
"u. c #9F5AAD",
"i. c #A056AD",
"p. c #A155AF",
"a. c #A157AE",
"s. c #A058AC",
"d. c #A058AE",
"f. c #A159AF",
"g. c #A353B2",
"h. c #A453B2",
"j. c #A753B3",
"k. c #A155B0",
"l. c #A354B0",
"z. c #A256B0",
"x. c #A256B1",
"c. c #A357B1",
"v. c #A154B2",
"b. c #A255B3",
"n. c #A357B2",
"m. c #A455B1",
"M. c #A454B3",
"N. c #A554B3",
"B. c #A452B4",
"V. c #A553B5",
"C. c #A652B4",
"Z. c #A753B5",
"A. c #A651B6",
"S. c #A752B7",
"D. c #A555B4",
"F. c #A655B4",
"G. c #A654B6",
"H. c #A852B5",
"J. c #A852B7",
"K. c #A854B6",
"L. c #A258B1",
"P. c #A851B9",
"I. c #A853B8",
"U. c #A953B8",
"Y. c #A952BA",
"T. c #9563A0",
"R. c #9861A2",
"E. c #9960A4",
"W. c #9960A5",
"Q. c #C37FD2",
"!. c #C77FD3",
"~. c #C87ED5",
"^. c #AA93AF",
"/. c #B18DB9",
"(. c #B28DB9",
"). c #B18EB8",
"_. c #B28FB9",
"`. c #B28CBB",
"'. c #B28EBA",
"]. c #B38FBB",
"[. c #B58BBD",
"{. c #B58ABF",
"}. c #B38DBC",
"|. c #B48DBC",
" X c #B58FBE",
".X c #AE90B4",
"XX c #AF91B5",
"oX c #AE95B5",
"OX c #B291BC",
"+X c #B490BC",
"@X c #B590BC",
"#X c #B490BE",
"$X c #B987C2",
"%X c #B987C4",
"&X c #BA86C4",
"*X c #BB87C5",
"=X c #B987C6",
"-X c #BA86C6",
";X c #BC85C6",
":X c #BD86C7",
">X c #B58FC0",
",X c #B68EC0",
"<X c #B889C0",
"1X c #B888C2",
"2X c #B989C3",
"3X c #B88DC2",
"4X c #B98CC3",
"5X c #BB89C4",
"6X c #BA88C5",
"7X c #BA8AC4",
"8X c #BB8BC5",
"9X c #BB89C6",
"0X c #BA8AC6",
"qX c #BF83CB",
"wX c #BA86C8",
"eX c #BC85C8",
"rX c #BD84C9",
"tX c #BC85C9",
"yX c #BE85C9",
"uX c #BD86C9",
"iX c #BD84CB",
"pX c #BE85CA",
"aX c #BE87CB",
"sX c #BF83CD",
"dX c #BE85CC",
"fX c #BF86CD",
"gX c #BB89C8",
"hX c #BC88C8",
"jX c #BC88CA",
"kX c #C082CD",
"lX c #C181CF",
"zX c #C183CE",
"xX c #C082CF",
"cX c #C282CE",
"vX c #C084CC",
"bX c #C084CE",
"nX c #C185CF",
"mX c #C284CF",
"MX c #C180D0",
"NX c #C380D0",
"BX c #C281D1",
"VX c #C183D0",
"CX c #C282D0",
"ZX c #C383D1",
"AX c #C382D2",
"SX c #C481D0",
"DX c #C580D1",
"FX c #C481D1",
"GX c #C480D3",
"HX c #C580D3",
/* pixels */
"                A A A A A S S S                                                                 A S S A A A A A                 ",
"                A A A A A A S S                                                                 S S S A A A A A                 ",
"                A A A A A S S S                                                                 S S S A A A A A                 ",
"                A A A A A S S S                                                                 S S S A A A A A                 ",
"                A A A A A S S S                                                                 S S S A A A A A                 ",
"                A A A A A S S S                                                                 S S S A A A A A                 ",
"                A A A A A S S S                                                                 S S S A A A A A                 ",
"                A A A A A S S S                                                                 S S S A A A A A                 ",
"                A A A A A A A A A A A A A A A A                                 A A A A A A A A A A A A A A A A                 ",
"                A A A A A A A A A A A A A A A A                                 A A A A A A A A A A A A A A A A                 ",
"                A A A A A A A A A A A A A A A A                                 A A A A A A A A A A A A A A A A                 ",
"                A A A A A A A A A A A A A A A A                                 A A A A A A A A A A A A A A A A                 ",
"                A A A A A A A A A A A A A A A A                                 A A A A A A A A A A A A A A A A                 ",
"                A A A A A A A A A A A A A A A A                                 A A A A A A A A A A A A A A A A                 ",
"                A A A A A A A A A A A A A A A A                                 A A A A A A A A A A A A A A A A                 ",
"                A A A A A A A A A A A A A A A A                                 A A A A A A A A A A A A A A A A                 ",
"A A A A A A A A     > >     >   S Y A A A A A A A A A A A A A A A A A A A A A A A A A A A A A A     7   >       S S A A A A A A ",
"A A A A A A A A >         >     A A A A A A A A A A A A A A A A A A A A A A A A A A A A A A A A     >       >   A S A A A A A A ",
"A A A A A A A A >           > > A A A A A A A A A A A A A A A A A A A A A A A A A A A A A A A A   >       >   > A A A A A A A A ",
"A A A A A A A A     > > >       A A A A A A A A A A A A A A A A A A A A A A A A A A A A A A A A       >   >     A A A A A A A A ",
"A A A A A A A A >             > A A A A A A A A A A A A A A A A A A A A A A A A A A A A A A A A >     >     >   A A A A A A A A ",
"A A A A A A A A     >   > >     A A A A A A A A A A A A A A A A A A A A A A A A A A A A A A A A >     >   >     A A A A A A A A ",
"A A A A A A A A   >   >     >   A A A A A A A A A A A A A A A A A A A A A A A A A A A A A A A A             > > A A A A A A A A ",
"A A A A A A A A   >       >     A A A A A A A A A A A A A A A A A A A A A A A A A A A A A A A A   > >   >       A A A A A A A A ",
"                    >       > > A A A A A A A A A A A A A A A A A A A A A A A A A A A A A A A A   > >                           ",
"                    >   >       A A A A A A A A A A A A A A A A A A A A A A A A A A A A A A A A                                 ",
"                  >     >       A A A A A A A A A A A A A A A A A A A A A A A A A A A A A A A A >     >                         ",
"                      >     > > A A A A A A A A A A A A A A A A A A A A A A A A A A A A A A A A >                               ",
"                >       >       A A A A A A A A A A A A A A A A A A A A A A A A A A A A A A A A       >                         ",
"                >   >   >   >   A A A A A A A A A A A A A A A A A A A A A A A A A A A A A A A A   >                             ",
"                    >       >   A A A A A A A A A A A A A A A A A A A A A A A A A A A A A A A A >   >                           ",
"i y y y u p p p h j h h j j j h +.] +.+...+.] ' / T A A A A A T A A A A Y A T _ ' +.+.+.+.+.] +.j k j j h j p p p p p u y y i i ",
"@X#X#X X,X3X3X1XT.W.W.6.e.e.r.W.,XOX,X4X3X3X#XoX+._ G D V A / ( ] / A G D V T +.oX#X3X3X3X>XOX,XW.r.9.W.E.W.R.T.8X3X,X,X>X#XOX#X",
"5XgX2X*XvXbXmXzXu.s.L.C.b.I.I.b.dX4XdXdXVXbX2X/.#._ Y D D A ) ( ( / V V D Y _ #./.2XbXbXbXaX2XdXL.Y.K.F.N.L.s.f.ZXbXpXpXjXjXgX2X",
"$X*X*XtXpXpXzXQ.u.s.x.v.I.I.I.V.dXpXsXsXCXdX*X/.#.' G D D V / / / ) V F D D ' #.`.$XsXCXbXsXtXsXx.J.J.N.N.p.p.u.FXzXqXqX*X=X*XjX",
"*X*XpX;XpXvXzXQ.q.p.v.v.V.V.C.b.CXdXsXQ.Q.zX*X`.#.' A F F V A A ) C V F D A ' %.`.*XzXQ.CXCXpXsXx.C.C.N.p.p.p.q.FXzXzXqXrXtXtX*X",
";X;XpXpXbXvXzXFXq.s.x.F.F.C.V.L.CXsXGXGXFXzX2X X%.' A D D D Y A A A D D D Z O.%.}.2XzXFXQ.CXbXCXx.j.N.N.N.p.p.u.FXzXzXdXqXtXpXtX",
"qXpXpXpXzXzXFXFXs.s.x.F.F.C.C.b.sXdXdXCXzXdX2X/.%.' Y D D U N Y A U D D D Z O.+.OX2XpXzXCXbXdXzXp.j.j.N.N.p.s.s.FXCXCXzXsXdXpXpX",
"cXcXzXCXFXFXQ.~.x.x.b.C.C.C.I.b.pX2X2XtX2X2X/..X+.' A D D D V A A V D D U Y ' +..X/.2X*X2X*X2XpXx.C.J.j.N.N.a.p.~.Q.Q.FXCXCXbXCX",
"1X{.1X1X$X*X;X;X,.<.6.6.4.0.0.<.<X/./.}././..XoX+.' T U D V A A A A B B Y T ~ +..X.X/.`.}././.[.,.6.6.3.2.2.2.R.pXpX2X1X1X1X1X1X",
"*.*.*.*.*.*.:.:.l l l z x x x x  . . .} X.} } b ' _ T A A A A _ C C A A A A _ ' b } X.X.} } X.} c z c c l l l l ;.;.;.-.-.-.-.=.",
"P P P P J J D B > > > > 7   7 7 5 5 5 5 y y y 5 _ T T A A T C _ / C _ A A T T _ 5 e r e 5 5 5 5   > > > > > > > D U I I I I I I ",
"V B n n n N N N >         5 5         >         T T A _ T _ _ _ _ / _ A T T A A         > >   >                 N A N M M M M M ",
"Y Y Y Y Y Y Y T   5 5 5 5   5   > > > > > > >   A A T A _ _ T T T A _ / T T A A > > > > > > > >       5 5   5   Y Y Y ~ E E Y Y ",
"Z ~ T Y A T A A                   > > > > > > > A A A _ T A A Y A A T T _ T A A   > > > > > >                   T T E E T E E E ",
"T Z T Y T U A A                 >     > > > > > A _ / _ T A A D D A A T _ _ _ A   > > > >                       T N E E E E Q E ",
"~ ~ T ~ T T T T                   e 0           A C _ T A A P D D D U A T _ _ A             e 0 0             5 T T ~ ~ ~ T ~ ~ ",
"' T ~ T ~ T T T 5   5 5         0 e e     >     _ A _ T A G D D D U U A T T _ A   > >     e e 0             5   T T T T ~ T T ~ ",
"7 > 7 > 7 > > 7                     5           7 7 > > > > > > > > > 7 > > > 7             5                   > > > 7 7 7 7 7 ",
">   >   >                                           >   >     > >   >     >                                       > >         > ",
"                                                                                                                                ",
"                                                                                                                                ",
"        >   >                                           >   >     >         >                                   >     >   >     ",
"                                                                                                                                ",
"                                                                                                                                ",
">     >   >                                     >     >   >     >     > >     >                                         >     > ",
"                                                                                                                                ",
"                                                                                                                                ",
"                                                                                                                                ",
"                                                                                                                                ",
"                                                                                                                                ",
"                                                                                                                                ",
"                                                                                                                                ",
"                                                                                                                                "
};
