/* XPM */
static char *xpm_[] = {
/* columns rows colors chars-per-pixel */
"64 64 7 1 ",
"  c #511515",
". c #572121",
"X c #501B1B",
"o c #652828",
"O c #723232",
"+ c #411616",
"@ c #854242",
/* pixels */
"    ....    XXXXooooXXXXOOOOOOOOoooooooo++++ooooooooOOOOoooo....",
"    ....    XXXXooooXXXXOOOOOOOOoooooooo++++ooooooooOOOOoooo....",
"    ....    XXXXooooXXXXOOOOOOOOoooooooo++++ooooooooOOOOoooo....",
"    ....    XXXXooooXXXXOOOOOOOOoooooooo++++ooooooooOOOOoooo....",
"....oooooooo....XXXX++++XXXXooooOOOOXXXX    ++++ooooooooXXXX    ",
"....oooooooo....XXXX++++XXXXooooOOOOXXXX    ++++ooooooooXXXX    ",
"....oooooooo....XXXX++++XXXXooooOOOOXXXX    ++++ooooooooXXXX    ",
"....oooooooo....XXXX++++XXXXooooOOOOXXXX    ++++ooooooooXXXX    ",
"OOOOooooOOOOoooo....++++    XXXXoooo....XXXX    ooooXXXXooooOOOO",
"OOOOooooOOOOoooo....++++    XXXXoooo....XXXX    ooooXXXXooooOOOO",
"OOOOooooOOOOoooo....++++    XXXXoooo....XXXX    ooooXXXXooooOOOO",
"OOOOooooOOOOoooo....++++    XXXXoooo....XXXX    ooooXXXXooooOOOO",
"@@@@OOOOooooOOOOooooXXXX....OOOOooooOOOOOOOO....    ooooXXXXoooo",
"@@@@OOOOooooOOOOooooXXXX....OOOOooooOOOOOOOO....    ooooXXXXoooo",
"@@@@OOOOooooOOOOooooXXXX....OOOOooooOOOOOOOO....    ooooXXXXoooo",
"@@@@OOOOooooOOOOooooXXXX....OOOOooooOOOOOOOO....    ooooXXXXoooo",
"OOOO@@@@OOOOooooXXXXooooOOOO@@@@@@@@ooooOOOOOOOOXXXXOOOOoooo....",
"OOOO@@@@OOOOooooXXXXooooOOOO@@@@@@@@ooooOOOOOOOOXXXXOOOOoooo....",
"OOOO@@@@OOOOooooXXXXooooOOOO@@@@@@@@ooooOOOOOOOOXXXXOOOOoooo....",
"OOOO@@@@OOOOooooXXXXooooOOOO@@@@@@@@ooooOOOOOOOOXXXXOOOOoooo....",
"    OOOOoooo....    OOOO@@@@@@@@OOOOOOOOooooXXXXooooooooOOOOoooo",
"    OOOOoooo....    OOOO@@@@@@@@OOOOOOOOooooXXXXooooooooOOOOoooo",
"    OOOOoooo....    OOOO@@@@@@@@OOOOOOOOooooXXXXooooooooOOOOoooo",
"    OOOOoooo....    OOOO@@@@@@@@OOOOOOOOooooXXXXooooooooOOOOoooo",
"    ooooOOOOXXXX++++OOOOooooOOOOOOOOooooXXXX    ooooOOOO@@@@OOOO",
"    ooooOOOOXXXX++++OOOOooooOOOOOOOOooooXXXX    ooooOOOO@@@@OOOO",
"    ooooOOOOXXXX++++OOOOooooOOOOOOOOooooXXXX    ooooOOOO@@@@OOOO",
"    ooooOOOOXXXX++++OOOOooooOOOOOOOOooooXXXX    ooooOOOO@@@@OOOO",
"OOOO....    ++++XXXXooooOOOOoooo        OOOOooooXXXXoooo@@@@@@@@",
"OOOO....    ++++XXXXooooOOOOoooo        OOOOooooXXXXoooo@@@@@@@@",
"OOOO....    ++++XXXXooooOOOOoooo        OOOOooooXXXXoooo@@@@@@@@",
"OOOO....    ++++XXXXooooOOOOoooo        OOOOooooXXXXoooo@@@@@@@@",
"ooooXXXXooooOOOOooooXXXXXXXX    ooooooooOOOOOOOOoooo    ooooOOOO",
"ooooXXXXooooOOOOooooXXXXXXXX    ooooooooOOOOOOOOoooo    ooooOOOO",
"ooooXXXXooooOOOOooooXXXXXXXX    ooooooooOOOOOOOOoooo    ooooOOOO",
"ooooXXXXooooOOOOooooXXXXXXXX    ooooooooOOOOOOOOoooo    ooooOOOO",
"XXXXooooOOOO@@@@OOOOoooo++++XXXXooooOOOOooooOOOOOOOO        XXXX",
"XXXXooooOOOO@@@@OOOOoooo++++XXXXooooOOOOooooOOOOOOOO        XXXX",
"XXXXooooOOOO@@@@OOOOoooo++++XXXXooooOOOOooooOOOOOOOO        XXXX",
"XXXXooooOOOO@@@@OOOOoooo++++XXXXooooOOOOooooOOOOOOOO        XXXX",
"....OOOOooooOOOOOOOOoooo++++XXXXOOOO@@@@OOOOOOOOXXXX++++++++XXXX",
"....OOOOooooOOOOOOOOoooo++++XXXXOOOO@@@@OOOOOOOOXXXX++++++++XXXX",
"....OOOOooooOOOOOOOOoooo++++XXXXOOOO@@@@OOOOOOOOXXXX++++++++XXXX",
"....OOOOooooOOOOOOOOoooo++++XXXXOOOO@@@@OOOOOOOOXXXX++++++++XXXX",
"ooooXXXXXXXXOOOOooooXXXX    ++++XXXXOOOOoooo    ++++XXXX....XXXX",
"ooooXXXXXXXXOOOOooooXXXX    ++++XXXXOOOOoooo    ++++XXXX....XXXX",
"ooooXXXXXXXXOOOOooooXXXX    ++++XXXXOOOOoooo    ++++XXXX....XXXX",
"ooooXXXXXXXXOOOOooooXXXX    ++++XXXXOOOOoooo    ++++XXXX....XXXX",
"    ooooOOOOooooXXXXOOOOoooo    XXXXXXXX    OOOOooooOOOOoooo    ",
"    ooooOOOOooooXXXXOOOOoooo    XXXXXXXX    OOOOooooOOOOoooo    ",
"    ooooOOOOooooXXXXOOOOoooo    XXXXXXXX    OOOOooooOOOOoooo    ",
"    ooooOOOOooooXXXXOOOOoooo    XXXXXXXX    OOOOooooOOOOoooo    ",
"....OOOOooooOOOOOOOO@@@@OOOO    XXXXXXXX....ooooOOOO@@@@OOOO    ",
"....OOOOooooOOOOOOOO@@@@OOOO    XXXXXXXX....ooooOOOO@@@@OOOO    ",
"....OOOOooooOOOOOOOO@@@@OOOO    XXXXXXXX....ooooOOOO@@@@OOOO    ",
"....OOOOooooOOOOOOOO@@@@OOOO    XXXXXXXX....ooooOOOO@@@@OOOO    ",
"XXXXooooOOOOOOOO@@@@ooooXXXX....XXXX++++ooooOOOOooooOOOOoooooooo",
"XXXXooooOOOOOOOO@@@@ooooXXXX....XXXX++++ooooOOOOooooOOOOoooooooo",
"XXXXooooOOOOOOOO@@@@ooooXXXX....XXXX++++ooooOOOOooooOOOOoooooooo",
"XXXXooooOOOOOOOO@@@@ooooXXXX....XXXX++++ooooOOOOooooOOOOoooooooo",
"XXXXXXXXooooOOOOOOOOXXXXooooOOOO....++++XXXXooooOOOOOOOOoooooooo",
"XXXXXXXXooooOOOOOOOOXXXXooooOOOO....++++XXXXooooOOOOOOOOoooooooo",
"XXXXXXXXooooOOOOOOOOXXXXooooOOOO....++++XXXXooooOOOOOOOOoooooooo",
"XXXXXXXXooooOOOOOOOOXXXXooooOOOO....++++XXXXooooOOOOOOOOoooooooo"
};
