/* XPM */
static char *fad7ff195ceb428591fa4c180d2a2a5bHzGK9sELCZdegcS5[] = {
/* columns rows colors chars-per-pixel */
"64 64 8 1 ",
"  c #06030B",
". c #000001",
"X c #2B0178",
"o c #100C1C",
"O c #3B2754",
"+ c #271E3D",
"@ c #6006AB",
"# c #8308E4",
/* pixels */
"    ............XXXX    oooo    ....OOOO++++        ++++OOOO++++",
"    ............XXXX    oooo    ....OOOO++++        ++++OOOO++++",
"    ............XXXX    oooo    ....OOOO++++        ++++OOOO++++",
"    ............XXXX    oooo    ....OOOO++++        ++++OOOO++++",
"    ....    oooo....XXXXXXXX....OOOOoooo    @@@@++++OOOOoooo    ",
"    ....    oooo....XXXXXXXX....OOOOoooo    @@@@++++OOOOoooo    ",
"    ....    oooo....XXXXXXXX....OOOOoooo    @@@@++++OOOOoooo    ",
"    ....    oooo....XXXXXXXX....OOOOoooo    @@@@++++OOOOoooo    ",
"........OOOOOOOO++++....    ++++++++oooooooo####oooo++++....    ",
"........OOOOOOOO++++....    ++++++++oooooooo####oooo++++....    ",
"........OOOOOOOO++++....    ++++++++oooooooo####oooo++++....    ",
"........OOOOOOOO++++....    ++++++++oooooooo####oooo++++....    ",
"XXXXOOOO++++oooooooo++++@@@@oooo    oooo####....    @@@@XXXX....",
"XXXXOOOO++++oooooooo++++@@@@oooo    oooo####....    @@@@XXXX....",
"XXXXOOOO++++oooooooo++++@@@@oooo    oooo####....    @@@@XXXX....",
"XXXXOOOO++++oooooooo++++@@@@oooo    oooo####....    @@@@XXXX....",
"....++++XXXXooooXXXXXXXX@@@@@@@@########....            @@@@    ",
"....++++XXXXooooXXXXXXXX@@@@@@@@########....            @@@@    ",
"....++++XXXXooooXXXXXXXX@@@@@@@@########....            @@@@    ",
"....++++XXXXooooXXXXXXXX@@@@@@@@########....            @@@@    ",
"oooooooo####@@@@....oooo            @@@@OOOO++++        XXXX....",
"oooooooo####@@@@....oooo            @@@@OOOO++++        XXXX....",
"oooooooo####@@@@....oooo            @@@@OOOO++++        XXXX....",
"oooooooo####@@@@....oooo            @@@@OOOO++++        XXXX....",
"@@@@####    oooo++++OOOOOOOOXXXX    ....++++....@@@@........XXXX",
"@@@@####    oooo++++OOOOOOOOXXXX    ....++++....@@@@........XXXX",
"@@@@####    oooo++++OOOOOOOOXXXX    ....++++....@@@@........XXXX",
"@@@@####    oooo++++OOOOOOOOXXXX    ....++++....@@@@........XXXX",
"    ....ooooOOOOoooooooo####@@@@XXXX........@@@@....OOOO++++....",
"    ....ooooOOOOoooooooo####@@@@XXXX........@@@@....OOOO++++....",
"    ....ooooOOOOoooooooo####@@@@XXXX........@@@@....OOOO++++....",
"    ....ooooOOOOoooooooo####@@@@XXXX........@@@@....OOOO++++....",
"........OOOO++++XXXX####oooo++++++++XXXX@@@@....++++oooooooooooo",
"........OOOO++++XXXX####oooo++++++++XXXX@@@@....++++oooooooooooo",
"........OOOO++++XXXX####oooo++++++++XXXX@@@@....++++oooooooooooo",
"........OOOO++++XXXX####oooo++++++++XXXX@@@@....++++oooooooooooo",
"XXXXoooo@@@@....oooo####@@@@++++oooo    @@@@oooo    oooo@@@@XXXX",
"XXXXoooo@@@@....oooo####@@@@++++oooo    @@@@oooo    oooo@@@@XXXX",
"XXXXoooo@@@@....oooo####@@@@++++oooo    @@@@oooo    oooo@@@@XXXX",
"XXXXoooo@@@@....oooo####@@@@++++oooo    @@@@oooo    oooo@@@@XXXX",
"ooooXXXXXXXX@@@@####        XXXX        ........oooo@@@@....++++",
"ooooXXXXXXXX@@@@####        XXXX        ........oooo@@@@....++++",
"ooooXXXXXXXX@@@@####        XXXX        ........oooo@@@@....++++",
"ooooXXXXXXXX@@@@####        XXXX        ........oooo@@@@....++++",
"....oooo    XXXXoooo@@@@    oooo    OOOOOOOO++++ooooooooXXXXXXXX",
"....oooo    XXXXoooo@@@@    oooo    OOOOOOOO++++ooooooooXXXXXXXX",
"....oooo    XXXXoooo@@@@    oooo    OOOOOOOO++++ooooooooXXXXXXXX",
"....oooo    XXXXoooo@@@@    oooo    OOOOOOOO++++ooooooooXXXXXXXX",
"    OOOOOOOOoooo....XXXXoooooooo++++OOOO@@@@    ooooXXXXoooo    ",
"    OOOOOOOOoooo....XXXXoooooooo++++OOOO@@@@    ooooXXXXoooo    ",
"    OOOOOOOOoooo....XXXXoooooooo++++OOOO@@@@    ooooXXXXoooo    ",
"    OOOOOOOOoooo....XXXXoooooooo++++OOOO@@@@    ooooXXXXoooo    ",
"++++++++oooo    @@@@    ....oooooooooooo@@@@XXXXXXXX....++++    ",
"++++++++oooo    @@@@    ....oooooooooooo@@@@XXXXXXXX....++++    ",
"++++++++oooo    @@@@    ....oooooooooooo@@@@XXXXXXXX....++++    ",
"++++++++oooo    @@@@    ....oooooooooooo@@@@XXXXXXXX....++++    ",
"....++++    @@@@oooo    ++++        @@@@oooo....XXXX........    ",
"....++++    @@@@oooo    ++++        @@@@oooo....XXXX........    ",
"....++++    @@@@oooo    ++++        @@@@oooo....XXXX........    ",
"....++++    @@@@oooo    ++++        @@@@oooo....XXXX........    ",
"oooo    ....@@@@....    oooo++++ooooXXXX            XXXX        ",
"oooo    ....@@@@....    oooo++++ooooXXXX            XXXX        ",
"oooo    ....@@@@....    oooo++++ooooXXXX            XXXX        ",
"oooo    ....@@@@....    oooo++++ooooXXXX            XXXX        "
};
