/* XPM */
static char *_245f39369a9462aefc70726cd385b0aEjPhH4MSNLlHK38u[] = {
/* columns rows colors chars-per-pixel */
"16 16 217 2 ",
"   c #2F200D",
".  c #2B1E0D",
"X  c #2F1F0F",
"o  c #2E1F0F",
"O  c #281D0B",
"+  c #271C0B",
"@  c #231808",
"#  c #251A0A",
"$  c #261A0A",
"%  c #2A1D0D",
"&  c #2C1F0E",
"*  c #2A1E0C",
"=  c #2A1D0C",
"-  c #271A09",
";  c #291C0C",
":  c #2C1E0E",
">  c #281C0B",
",  c #291C0B",
"<  c #2E210E",
"1  c #30210E",
"2  c #3D270F",
"3  c #3E270F",
"4  c #3B2713",
"5  c #392612",
"6  c #291D0C",
"7  c #281C0C",
"8  c #2C1E0D",
"9  c #2D1F0E",
"0  c #362715",
"q  c #372716",
"w  c #382816",
"e  c #392916",
"r  c #3F2E1B",
"t  c #412E1B",
"y  c #4C331A",
"u  c #4D331B",
"i  c #4A331D",
"p  c #48321C",
"a  c #372715",
"s  c #352513",
"d  c #2B1E0C",
"f  c #251A09",
"g  c #342513",
"h  c #A97F63",
"j  c #B18669",
"k  c #B5886C",
"l  c #B78A6E",
"z  c #BF917A",
"x  c #BE907A",
"c  c #B7876F",
"v  c #B7876E",
"b  c #B7896F",
"n  c #B5876D",
"m  c #A97559",
"M  c #9D6B50",
"N  c #372714",
"B  c #2F210F",
"V  c #332413",
"C  c #412E1D",
"Z  c #B2866A",
"A  c #BA8D70",
"S  c #BC8D71",
"D  c #BE8F73",
"F  c #C6967F",
"G  c #C5957F",
"H  c #BC8A72",
"J  c #BC8A71",
"K  c #BE8F75",
"L  c #BC8D72",
"P  c #B07A5E",
"I  c #A47155",
"U  c #432F1B",
"Y  c #3B2A16",
"T  c #A37861",
"R  c #A47962",
"E  c #B1816A",
"W  c #B2816A",
"Q  c #AC7F66",
"!  c #AC7F67",
"~  c #AE816E",
"^  c #AD806D",
"/  c #9D725D",
"(  c #9F745D",
")  c #BB886E",
"_  c #9C684B",
"`  c #996548",
"'  c #966548",
"]  c #AC7F68",
"[  c #AD8069",
"{  c #BA8D78",
"}  c #B88B77",
"|  c #A47969",
" . c #A37868",
".. c #AD7F6C",
"X. c #AC7E6B",
"o. c #9E735D",
"O. c #9F745F",
"+. c #B28273",
"@. c #B28272",
"#. c #A4755B",
"$. c #A27359",
"%. c #9F6C50",
"&. c #9F6B4F",
"*. c #B88D78",
"=. c #FDF9F6",
"-. c #EFECF1",
";. c #5B478C",
":. c #5B4283",
">. c #B17A6A",
",. c #B77E68",
"<. c #B38475",
"1. c #573F84",
"2. c #604C8F",
"3. c #F4F2F5",
"4. c #F7F3EF",
"5. c #AD836D",
"6. c #A97B63",
"7. c #B07E67",
"8. c #B78A75",
"9. c #F9F3EF",
"0. c #ECE7EB",
"q. c #5F488B",
"w. c #5E4382",
"e. c #AB7465",
"r. c #B07763",
"t. c #B6836C",
"y. c #AE7F70",
"u. c #5B4282",
"i. c #644F8D",
"p. c #F1EDEE",
"a. c #F4EDE8",
"s. c #AA8069",
"d. c #A67860",
"f. c #9D6447",
"g. c #9F674B",
"h. c #B68168",
"j. c #B7826B",
"k. c #B68276",
"l. c #AE7B70",
"z. c #714636",
"x. c #6C4332",
"c. c #6C4232",
"v. c #734938",
"b. c #B7836C",
"n. c #BA856D",
"m. c #A87352",
"M. c #A46F4D",
"N. c #845737",
"B. c #825536",
"V. c #996244",
"C. c #9C6447",
"Z. c #AE765B",
"A. c #AF775E",
"S. c #B07C6A",
"D. c #A97664",
"F. c #6E4333",
"G. c #6A402F",
"H. c #6A3F2F",
"J. c #714534",
"K. c #B27E62",
"L. c #B58062",
"P. c #A16846",
"I. c #9C6542",
"U. c #815335",
"Y. c #7F5234",
"T. c #915F44",
"R. c #9A6344",
"E. c #925D3F",
"W. c #4A2814",
"Q. c #4C2815",
"!. c #874A3C",
"~. c #8B4C3E",
"^. c #8B4D3F",
"/. c #85493B",
"(. c #4D2814",
"). c #502B16",
"_. c #8D5D3D",
"`. c #90603F",
"'. c #825339",
"]. c #815339",
"[. c #8D5C41",
"{. c #8D5C40",
"}. c #945E3F",
"|. c #8B583A",
" X c #42220C",
".X c #44230D",
"XX c #824737",
"oX c #864939",
"OX c #864A3A",
"+X c #804636",
"@X c #45220E",
"#X c #482510",
"$X c #8A5A3B",
"%X c #8E5D3E",
"&X c #805239",
"*X c #71462D",
"=X c #70462C",
"-X c #6B4228",
";X c #43230D",
":X c #41200C",
">X c #451F0D",
",X c #461F0D",
"<X c #482410",
"1X c #492411",
"2X c #44210D",
"3X c #4A2612",
"4X c #84563B",
"5X c #7A4E33",
"6X c #6F452C",
"7X c #6E452C",
"8X c #6D442B",
"9X c #684027",
"0X c #40200B",
"qX c #411D0A",
"wX c #44220D",
"eX c #83553B",
"rX c white",
/* pixels */
"    . . X o O + @ @ # $ . . % % ",
"    & & X X * = - - ; ; : : % % ",
". . > > > , < 1 2 3 4 5 6 7 O O ",
"8 9 0 q w e r t y u i p a s d * ",
"f g h j k l z x c v b n m M N B ",
"V C Z A S D F G H J K L P I U Y ",
"T R E W Q ! ~ ^ / ( J ) _ ` ' ' ",
"] [ { } |  ...X.o.O.+.@.#.$.%.&.",
"E *.=.-.;.:.>.,.J <.1.2.3.4.5.6.",
"7.8.9.0.q.w.e.r.t.y.u.i.p.a.s.d.",
"f.g.h.j.k.l.z.x.c.v.b.n.m.M.N.B.",
"V.C.Z.A.S.D.F.G.H.J.K.L.P.I.U.Y.",
"T.T.R.E.W.Q.!.~.^./.(.)._.`.'.].",
"[.{.}.|. X.XXXoXOX+X@X#X$X%X&X&X",
"*X*X=X-X;X:X>X,X<X1X2X3X].4X5X5X",
"6X7X8X9X;X0XqXqXwXwX2X3X&XeX5X5X"
};
