/* XPM */
static char *a0f670edef3c4c9f8ea1ae39be8a5ae1PEO8ddIAZdCINRs4[] = {
/* columns rows colors chars-per-pixel */
"64 64 77 1 ",
"  c #918E91",
". c #959395",
"X c #979497",
"o c #989598",
"O c #959295",
"+ c #928F92",
"@ c #888688",
"# c #898789",
"$ c #7F7D7F",
"% c #5A595A",
"& c #848384",
"* c #868586",
"= c #808080",
"- c gray51",
"; c #818081",
": c #7E7D7E",
"> c #818181",
", c #7C7B7C",
"< c #858485",
"1 c #807F80",
"2 c #7F7E7F",
"3 c #838183",
"4 c #7B797B",
"5 c gray49",
"6 c #747474",
"7 c #949294",
"8 c #7B7A7B",
"9 c #777677",
"0 c gray50",
"q c #878587",
"w c #848284",
"e c #7C7C7C",
"r c #767576",
"t c #727072",
"y c #908D90",
"u c #6E706E",
"i c #7A787A",
"p c #7D7B7D",
"a c gray45",
"s c #737473",
"d c #727272",
"f c gray48",
"g c #787978",
"h c #6E6D6E",
"j c #686A68",
"k c #666866",
"l c #676967",
"z c #656765",
"x c gray36",
"c c #717171",
"v c #706F70",
"b c #6B696B",
"n c #6C6B6C",
"m c #6F6E6F",
"M c #636263",
"N c #5D5C5D",
"B c #696869",
"V c #949194",
"C c #676667",
"Z c #918F91",
"A c #807E80",
"S c #8A888A",
"D c #7D7C7D",
"F c #696A69",
"G c #797879",
"H c #868486",
"J c #7B7B7B",
"K c #797979",
"L c #666566",
"P c #787678",
"I c #6D6F6D",
"U c #6A6D6A",
"Y c #646364",
"T c #636463",
"R c #5D5D5D",
"E c gray39",
"W c #616061",
/* pixels */
"    ....XXXX....ooooooooooooooooXXXXOOOOOOOO++++@@@@####$$$$%%%%",
"    ....XXXX....ooooooooooooooooXXXXOOOOOOOO++++@@@@####$$$$%%%%",
"    ....XXXX....ooooooooooooooooXXXXOOOOOOOO++++@@@@####$$$$%%%%",
"    ....XXXX....ooooooooooooooooXXXXOOOOOOOO++++@@@@####$$$$%%%%",
"....&&&&****&&&&@@@@@@@@@@@@@@@@****====----;;;;::::>>>>,,,,%%%%",
"....&&&&****&&&&@@@@@@@@@@@@@@@@****====----;;;;::::>>>>,,,,%%%%",
"....&&&&****&&&&@@@@@@@@@@@@@@@@****====----;;;;::::>>>>,,,,%%%%",
"....&&&&****&&&&@@@@@@@@@@@@@@@@****====----;;;;::::>>>>,,,,%%%%",
"XXXX<<<<1111****---->>>>2222::::====&&&&@@@@3333444455556666%%%%",
"XXXX<<<<1111****---->>>>2222::::====&&&&@@@@3333444455556666%%%%",
"XXXX<<<<1111****---->>>>2222::::====&&&&@@@@3333444455556666%%%%",
"XXXX<<<<1111****---->>>>2222::::====&&&&@@@@3333444455556666%%%%",
"7777888899990000qqqq****11118888;;;;wwwweeee44448888rrrrtttt%%%%",
"7777888899990000qqqq****11118888;;;;wwwweeee44448888rrrrtttt%%%%",
"7777888899990000qqqq****11118888;;;;wwwweeee44448888rrrrtttt%%%%",
"7777888899990000qqqq****11118888;;;;wwwweeee44448888rrrrtttt%%%%",
"yyyy6666uuuuiiii44440000wwww5555eeee4444pppp8888aaaassss6666%%%%",
"yyyy6666uuuuiiii44440000wwww5555eeee4444pppp8888aaaassss6666%%%%",
"yyyy6666uuuuiiii44440000wwww5555eeee4444pppp8888aaaassss6666%%%%",
"yyyy6666uuuuiiii44440000wwww5555eeee4444pppp8888aaaassss6666%%%%",
"2222dddduuuuffffgggg666666666666rrrreeee2222dddduuuugggghhhh%%%%",
"2222dddduuuuffffgggg666666666666rrrreeee2222dddduuuugggghhhh%%%%",
"2222dddduuuuffffgggg666666666666rrrreeee2222dddduuuugggghhhh%%%%",
"2222dddduuuuffffgggg666666666666rrrreeee2222dddduuuugggghhhh%%%%",
"jjjjjjjjkkkklllljjjjjjjjkkkkkkkklllljjjjjjjjjjjjjjjjjjjjzzzzxxxx",
"jjjjjjjjkkkklllljjjjjjjjkkkkkkkklllljjjjjjjjjjjjjjjjjjjjzzzzxxxx",
"jjjjjjjjkkkklllljjjjjjjjkkkkkkkklllljjjjjjjjjjjjjjjjjjjjzzzzxxxx",
"jjjjjjjjkkkklllljjjjjjjjkkkkkkkklllljjjjjjjjjjjjjjjjjjjjzzzzxxxx",
"ccccvvvvbbbbnnnnccccmmmmMMMMNNNNBBBBcccccccccccccccccccccccccccc",
"ccccvvvvbbbbnnnnccccmmmmMMMMNNNNBBBBcccccccccccccccccccccccccccc",
"ccccvvvvbbbbnnnnccccmmmmMMMMNNNNBBBBcccccccccccccccccccccccccccc",
"ccccvvvvbbbbnnnnccccmmmmMMMMNNNNBBBBcccccccccccccccccccccccccccc",
"VVVVooooooooooooXXXX++++,,,,CCCCZZZZXXXX....ooooooooooooXXXXOOOO",
"VVVVooooooooooooXXXX++++,,,,CCCCZZZZXXXX....ooooooooooooXXXXOOOO",
"VVVVooooooooooooXXXX++++,,,,CCCCZZZZXXXX....ooooooooooooXXXXOOOO",
"VVVVooooooooooooXXXX++++,,,,CCCCZZZZXXXX....ooooooooooooXXXXOOOO",
"AAAA@@@@####SSSS****22226666bbbbXXXX<<<<;;;;SSSSqqqqSSSS****0000",
"AAAA@@@@####SSSS****22226666bbbbXXXX<<<<;;;;SSSSqqqqSSSS****0000",
"AAAA@@@@####SSSS****22226666bbbbXXXX<<<<;;;;SSSSqqqqSSSS****0000",
"AAAA@@@@####SSSS****22226666bbbbXXXX<<<<;;;;SSSSqqqqSSSS****0000",
"****----&&&&****22228888hhhhbbbb7777eeeepppp3333DDDD****====----",
"****----&&&&****22228888hhhhbbbb7777eeeepppp3333DDDD****====----",
"****----&&&&****22228888hhhhbbbb7777eeeepppp3333DDDD****====----",
"****----&&&&****22228888hhhhbbbb7777eeeepppp3333DDDD****====----",
">>>>@@@@****2222eeee9999FFFFBBBByyyyGGGGeeee,,,,>>>>22220000HHHH",
">>>>@@@@****2222eeee9999FFFFBBBByyyyGGGGeeee,,,,>>>>22220000HHHH",
">>>>@@@@****2222eeee9999FFFFBBBByyyyGGGGeeee,,,,>>>>22220000HHHH",
">>>>@@@@****2222eeee9999FFFFBBBByyyyGGGGeeee,,,,>>>>22220000HHHH",
"5555eeeeJJJJ8888rrrrKKKKvvvvLLLLqqqqiiii44440000&&&&::::GGGGPPPP",
"5555eeeeJJJJ8888rrrrKKKKvvvvLLLLqqqqiiii44440000&&&&::::GGGGPPPP",
"5555eeeeJJJJ8888rrrrKKKKvvvvLLLLqqqqiiii44440000&&&&::::GGGGPPPP",
"5555eeeeJJJJ8888rrrrKKKKvvvvLLLLqqqqiiii44440000&&&&::::GGGGPPPP",
"6666ddddIIIIddddUUUUIIIIhhhhYYYY====ffffgggg6666rrrrffffgggg6666",
"6666ddddIIIIddddUUUUIIIIhhhhYYYY====ffffgggg6666rrrrffffgggg6666",
"6666ddddIIIIddddUUUUIIIIhhhhYYYY====ffffgggg6666rrrrffffgggg6666",
"6666ddddIIIIddddUUUUIIIIhhhhYYYY====ffffgggg6666rrrrffffgggg6666",
"jjjjjjjjjjjjjjjjjjjjjjjjTTTTRRRRkkkklllljjjjjjjjjjjjjjjjjjjjjjjj",
"jjjjjjjjjjjjjjjjjjjjjjjjTTTTRRRRkkkklllljjjjjjjjjjjjjjjjjjjjjjjj",
"jjjjjjjjjjjjjjjjjjjjjjjjTTTTRRRRkkkklllljjjjjjjjjjjjjjjjjjjjjjjj",
"jjjjjjjjjjjjjjjjjjjjjjjjTTTTRRRRkkkklllljjjjjjjjjjjjjjjjjjjjjjjj",
"EEEEEEEEEEEEEEEEEEEEWWWW%%%%%%%%%%%%xxxxEEEEEEEEEEEEEEEEEEEEEEEE",
"EEEEEEEEEEEEEEEEEEEEWWWW%%%%%%%%%%%%xxxxEEEEEEEEEEEEEEEEEEEEEEEE",
"EEEEEEEEEEEEEEEEEEEEWWWW%%%%%%%%%%%%xxxxEEEEEEEEEEEEEEEEEEEEEEEE",
"EEEEEEEEEEEEEEEEEEEEWWWW%%%%%%%%%%%%xxxxEEEEEEEEEEEEEEEEEEEEEEEE"
};
