/* XPM */
static char *_6e5e0a6ea914710d9034e08d738fb44yI192dIwXCyrJhLD[] = {
/* columns rows colors chars-per-pixel */
"16 16 17 1 ",
"  c #8B898B",
". c #9C999C",
"X c #5A595A",
"o c gray50",
"O c #11727A",
"+ c #787678",
"@ c white",
"# c #D5FFF6",
"$ c #6A6D6A",
"% c #4AEDD9",
"& c #A1FBE8",
"* c #20C5B5",
"= c #145E53",
"- c gray39",
"; c #1AAAA7",
": c #1C919A",
"> c #2CE0D8",
/* pixels */
" ...........   X",
".o o     ooooo X",
". o ooOOOO  +ooX",
".o+o O@@@#O+o++X",
".+$+O@%%&#*=+$oX",
" +$O@%&&#&%*=o+X",
"$$$O@%@#@#%%=$$X",
"--O@%@%%&&;*;=--",
"..O@%#%&&&:*;=..",
"+ O@@*&&&%:;;= o",
" oO#%%;;;;**:=oo",
"o  =%;****;*=oo ",
"ooo=>;****;&=o++",
"++$+=:%%&&*=+oo+",
"$$$$$======$$$$$",
"------XXXX------"
};
