/* XPM */
static char *c423af5aa68148d79d570e8afa465defeu5Z8OuZTnA6IhkH[] = {
/* columns rows colors chars-per-pixel */
"64 64 171 2 ",
"   c #918E91",
".  c #959395",
"X  c #979497",
"o  c #989598",
"O  c #959295",
"+  c #928F92",
"@  c #888688",
"#  c #898789",
"$  c #7F7D7F",
"%  c #5A595A",
"&  c #848384",
"*  c #868586",
"=  c #818688",
"-  c #6C8387",
";  c #6A8184",
":  c #6B7D7F",
">  c gray51",
",  c #818081",
"<  c #7E7D7E",
"1  c #818181",
"2  c #7C7B7C",
"3  c #858485",
"4  c #807F80",
"5  c #7A8081",
"6  c #5E8285",
"7  c #4D959B",
"8  c #4A959B",
"9  c #4D9194",
"0  c #738387",
"q  c #838183",
"w  c #7B797B",
"e  c gray49",
"r  c #747474",
"t  c #949294",
"y  c #7B7A7B",
"u  c #777677",
"i  c #797E80",
"p  c #64888C",
"a  c #6EAFB2",
"s  c #D2FAF5",
"d  c #D7FBF6",
"f  c #E3FEF8",
"g  c #A5E1DB",
"h  c #278182",
"j  c #677372",
"k  c #767576",
"l  c #727072",
"z  c #908D90",
"x  c #676F6E",
"c  c #5A7D81",
"v  c #B5F8EF",
"b  c #60F1DD",
"n  c #73F3E0",
"m  c #B5FDED",
"M  c #A1F2E5",
"N  c #26B9A9",
"B  c #29766C",
"V  c #63706F",
"C  c #737473",
"Z  c #7F7E7F",
"A  c #727272",
"S  c #546E6E",
"D  c #66F1DE",
"F  c #B6FCED",
"G  c #BAFDEF",
"H  c #D3FEF5",
"J  c #95F8E7",
"K  c #42E5D2",
"L  c #25B3A3",
"P  c #2D655D",
"I  c #787978",
"U  c #6E6D6E",
"Y  c #686A68",
"T  c #636B6A",
"R  c #527879",
"E  c #BBF8F1",
"W  c #8EF4E7",
"Q  c #CAFAF4",
"!  c #C0FBF1",
"~  c #E0FEF8",
"^  c #A5F6E9",
"/  c #3EDECD",
"(  c #35C6B6",
")  c #256F67",
"_  c #596A65",
"`  c #656765",
"'  c gray36",
"]  c #717171",
"[  c #597173",
"{  c #75F2E2",
"}  c #4FEEDA",
"|  c #70F3E0",
" . c #A1FBE8",
".. c #7FE5D7",
"X. c #1CACA8",
"o. c #1EBEB1",
"O. c #189792",
"+. c #2B635B",
"@. c #949194",
"#. c #768C90",
"$. c #DDFCF8",
"%. c #83F1E3",
"&. c #96F0E3",
"*. c #9CFAE7",
"=. c #6FDED2",
"-. c #1D9CA0",
";. c #1DB9AF",
":. c #356C64",
">. c #807E80",
",. c #ECFEFB",
"<. c #A8F0E8",
"1. c #40D5C4",
"2. c #7FE7D8",
"3. c #6FE4D5",
"4. c #36CDC2",
"5. c #1DA3A3",
"6. c #1BAEA9",
"7. c #199290",
"8. c #316860",
"9. c gray50",
"0. c #6D7F81",
"q. c #4D9092",
"w. c #8EDCD0",
"e. c #47E9D6",
"r. c #35D1C4",
"t. c #1CB1AB",
"y. c #1CB4AC",
"u. c #1FC0B2",
"i. c #1EB5AA",
"p. c #1F7D7E",
"a. c #436C66",
"s. c #808080",
"d. c #6B7C7B",
"f. c #208174",
"g. c #38DACC",
"h. c #20C5B5",
"j. c #24B4AE",
"k. c #35B5A6",
"l. c #2F665E",
"z. c #868486",
"x. c #7C7C7C",
"c. c #677572",
"v. c #2B7B73",
"b. c #23B9B2",
"n. c #1FAFAA",
"m. c #2BCFBE",
"M. c #30D0BF",
"N. c #40D3C2",
"B. c #37CABC",
"V. c #34BAB1",
"C. c #6AB8A9",
"Z. c #426B65",
"A. c #797879",
"S. c #787678",
"D. c #6D6F6D",
"F. c #626F6E",
"G. c #266A65",
"H. c #239594",
"J. c #3CC9B7",
"K. c #4DCCBA",
"L. c #7ED4C3",
"P. c #66CAB9",
"I. c #20998C",
"U. c #3C6660",
"Y. c gray48",
"T. c #586864",
"R. c #275F56",
"E. c #265D55",
"W. c #38625B",
"Q. c gray39",
"!. c #616061",
/* pixels */
"        . . . . X X X X . . . . o o o o o o o o o o o o o o o o X X X X O O O O O O O O + + + + @ @ @ @ # # # # $ $ $ $ % % % % ",
"        . . . . X X X X . . . . o o o o o o o o o o o o o o o o X X X X O O O O O O O O + + + + @ @ @ @ # # # # $ $ $ $ % % % % ",
"        . . . . X X X X . . . . o o o o o o o o o o o o o o o o X X X X O O O O O O O O + + + + @ @ @ @ # # # # $ $ $ $ % % % % ",
"        . . . . X X X X . . . . o o o o o o o o o o o o o o o o X X X X O O O O O O O O + + + + @ @ @ @ # # # # $ $ $ $ % % % % ",
". . . . & & & & * * * * & & & & @ @ @ @ = = = = - - - - - - - - ; ; ; ; : : : : > > > > , , , , < < < < 1 1 1 1 2 2 2 2 % % % % ",
". . . . & & & & * * * * & & & & @ @ @ @ = = = = - - - - - - - - ; ; ; ; : : : : > > > > , , , , < < < < 1 1 1 1 2 2 2 2 % % % % ",
". . . . & & & & * * * * & & & & @ @ @ @ = = = = - - - - - - - - ; ; ; ; : : : : > > > > , , , , < < < < 1 1 1 1 2 2 2 2 % % % % ",
". . . . & & & & * * * * & & & & @ @ @ @ = = = = - - - - - - - - ; ; ; ; : : : : > > > > , , , , < < < < 1 1 1 1 2 2 2 2 % % % % ",
"X X X X 3 3 3 3 4 4 4 4 * * * * 5 5 5 5 6 6 6 6 7 7 7 7 7 7 7 7 8 8 8 8 9 9 9 9 0 0 0 0 q q q q w w w w e e e e r r r r % % % % ",
"X X X X 3 3 3 3 4 4 4 4 * * * * 5 5 5 5 6 6 6 6 7 7 7 7 7 7 7 7 8 8 8 8 9 9 9 9 0 0 0 0 q q q q w w w w e e e e r r r r % % % % ",
"X X X X 3 3 3 3 4 4 4 4 * * * * 5 5 5 5 6 6 6 6 7 7 7 7 7 7 7 7 8 8 8 8 9 9 9 9 0 0 0 0 q q q q w w w w e e e e r r r r % % % % ",
"X X X X 3 3 3 3 4 4 4 4 * * * * 5 5 5 5 6 6 6 6 7 7 7 7 7 7 7 7 8 8 8 8 9 9 9 9 0 0 0 0 q q q q w w w w e e e e r r r r % % % % ",
"t t t t y y y y u u u u i i i i p p p p a a a a s s s s d d d d f f f f g g g g h h h h j j j j y y y y k k k k l l l l % % % % ",
"t t t t y y y y u u u u i i i i p p p p a a a a s s s s d d d d f f f f g g g g h h h h j j j j y y y y k k k k l l l l % % % % ",
"t t t t y y y y u u u u i i i i p p p p a a a a s s s s d d d d f f f f g g g g h h h h j j j j y y y y k k k k l l l l % % % % ",
"t t t t y y y y u u u u i i i i p p p p a a a a s s s s d d d d f f f f g g g g h h h h j j j j y y y y k k k k l l l l % % % % ",
"z z z z r r r r x x x x c c c c a a a a v v v v b b b b n n n n m m m m M M M M N N N N B B B B V V V V C C C C r r r r % % % % ",
"z z z z r r r r x x x x c c c c a a a a v v v v b b b b n n n n m m m m M M M M N N N N B B B B V V V V C C C C r r r r % % % % ",
"z z z z r r r r x x x x c c c c a a a a v v v v b b b b n n n n m m m m M M M M N N N N B B B B V V V V C C C C r r r r % % % % ",
"z z z z r r r r x x x x c c c c a a a a v v v v b b b b n n n n m m m m M M M M N N N N B B B B V V V V C C C C r r r r % % % % ",
"Z Z Z Z A A A A S S S S 7 7 7 7 s s s s D D D D F F F F G G G G H H H H J J J J K K K K L L L L P P P P I I I I U U U U % % % % ",
"Z Z Z Z A A A A S S S S 7 7 7 7 s s s s D D D D F F F F G G G G H H H H J J J J K K K K L L L L P P P P I I I I U U U U % % % % ",
"Z Z Z Z A A A A S S S S 7 7 7 7 s s s s D D D D F F F F G G G G H H H H J J J J K K K K L L L L P P P P I I I I U U U U % % % % ",
"Z Z Z Z A A A A S S S S 7 7 7 7 s s s s D D D D F F F F G G G G H H H H J J J J K K K K L L L L P P P P I I I I U U U U % % % % ",
"Y Y Y Y T T T T R R R R a a a a E E E E W W W W Q Q Q Q ! ! ! ! ~ ~ ~ ~ ^ ^ ^ ^ / / / / ( ( ( ( ) ) ) ) _ _ _ _ ` ` ` ` ' ' ' ' ",
"Y Y Y Y T T T T R R R R a a a a E E E E W W W W Q Q Q Q ! ! ! ! ~ ~ ~ ~ ^ ^ ^ ^ / / / / ( ( ( ( ) ) ) ) _ _ _ _ ` ` ` ` ' ' ' ' ",
"Y Y Y Y T T T T R R R R a a a a E E E E W W W W Q Q Q Q ! ! ! ! ~ ~ ~ ~ ^ ^ ^ ^ / / / / ( ( ( ( ) ) ) ) _ _ _ _ ` ` ` ` ' ' ' ' ",
"Y Y Y Y T T T T R R R R a a a a E E E E W W W W Q Q Q Q ! ! ! ! ~ ~ ~ ~ ^ ^ ^ ^ / / / / ( ( ( ( ) ) ) ) _ _ _ _ ` ` ` ` ' ' ' ' ",
"] ] ] ] [ [ [ [ 7 7 7 7 s s s s { { { { Q Q Q Q } } } } | | | |  . . . .........X.X.X.X.o.o.o.o.O.O.O.O.+.+.+.+.] ] ] ] ] ] ] ] ",
"] ] ] ] [ [ [ [ 7 7 7 7 s s s s { { { { Q Q Q Q } } } } | | | |  . . . .........X.X.X.X.o.o.o.o.O.O.O.O.+.+.+.+.] ] ] ] ] ] ] ] ",
"] ] ] ] [ [ [ [ 7 7 7 7 s s s s { { { { Q Q Q Q } } } } | | | |  . . . .........X.X.X.X.o.o.o.o.O.O.O.O.+.+.+.+.] ] ] ] ] ] ] ] ",
"] ] ] ] [ [ [ [ 7 7 7 7 s s s s { { { { Q Q Q Q } } } } | | | |  . . . .........X.X.X.X.o.o.o.o.O.O.O.O.+.+.+.+.] ] ] ] ] ] ] ] ",
"@.@.@.@.#.#.#.#.7 7 7 7 $.$.$.$.%.%.%.%.&.&.&.&.| | | |  . . . .*.*.*.*.=.=.=.=.-.-.-.-.;.;.;.;.O.O.O.O.:.:.:.:.X X X X O O O O ",
"@.@.@.@.#.#.#.#.7 7 7 7 $.$.$.$.%.%.%.%.&.&.&.&.| | | |  . . . .*.*.*.*.=.=.=.=.-.-.-.-.;.;.;.;.O.O.O.O.:.:.:.:.X X X X O O O O ",
"@.@.@.@.#.#.#.#.7 7 7 7 $.$.$.$.%.%.%.%.&.&.&.&.| | | |  . . . .*.*.*.*.=.=.=.=.-.-.-.-.;.;.;.;.O.O.O.O.:.:.:.:.X X X X O O O O ",
"@.@.@.@.#.#.#.#.7 7 7 7 $.$.$.$.%.%.%.%.&.&.&.&.| | | |  . . . .*.*.*.*.=.=.=.=.-.-.-.-.;.;.;.;.O.O.O.O.:.:.:.:.X X X X O O O O ",
">.>.>.>.; ; ; ; 8 8 8 8 ,.,.,.,.<.<.<.<.1.1.1.1.2.2.2.2.2.2.2.2.3.3.3.3.4.4.4.4.5.5.5.5.6.6.6.6.7.7.7.7.8.8.8.8.* * * * 9.9.9.9.",
">.>.>.>.; ; ; ; 8 8 8 8 ,.,.,.,.<.<.<.<.1.1.1.1.2.2.2.2.2.2.2.2.3.3.3.3.4.4.4.4.5.5.5.5.6.6.6.6.7.7.7.7.8.8.8.8.* * * * 9.9.9.9.",
">.>.>.>.; ; ; ; 8 8 8 8 ,.,.,.,.<.<.<.<.1.1.1.1.2.2.2.2.2.2.2.2.3.3.3.3.4.4.4.4.5.5.5.5.6.6.6.6.7.7.7.7.8.8.8.8.* * * * 9.9.9.9.",
">.>.>.>.; ; ; ; 8 8 8 8 ,.,.,.,.<.<.<.<.1.1.1.1.2.2.2.2.2.2.2.2.3.3.3.3.4.4.4.4.5.5.5.5.6.6.6.6.7.7.7.7.8.8.8.8.* * * * 9.9.9.9.",
"* * * * 0.0.0.0.q.q.q.q.w.w.w.w.e.e.e.e.r.r.r.r.t.t.t.t.t.t.t.t.t.t.t.t.y.y.y.y.u.u.u.u.i.i.i.i.p.p.p.p.a.a.a.a.s.s.s.s.> > > > ",
"* * * * 0.0.0.0.q.q.q.q.w.w.w.w.e.e.e.e.r.r.r.r.t.t.t.t.t.t.t.t.t.t.t.t.y.y.y.y.u.u.u.u.i.i.i.i.p.p.p.p.a.a.a.a.s.s.s.s.> > > > ",
"* * * * 0.0.0.0.q.q.q.q.w.w.w.w.e.e.e.e.r.r.r.r.t.t.t.t.t.t.t.t.t.t.t.t.y.y.y.y.u.u.u.u.i.i.i.i.p.p.p.p.a.a.a.a.s.s.s.s.> > > > ",
"* * * * 0.0.0.0.q.q.q.q.w.w.w.w.e.e.e.e.r.r.r.r.t.t.t.t.t.t.t.t.t.t.t.t.y.y.y.y.u.u.u.u.i.i.i.i.p.p.p.p.a.a.a.a.s.s.s.s.> > > > ",
"1 1 1 1 @ @ @ @ d.d.d.d.f.f.f.f.g.g.g.g.t.t.t.t.h.h.h.h.h.h.h.h.h.h.h.h.o.o.o.o.j.j.j.j.k.k.k.k.l.l.l.l.Z Z Z Z 9.9.9.9.z.z.z.z.",
"1 1 1 1 @ @ @ @ d.d.d.d.f.f.f.f.g.g.g.g.t.t.t.t.h.h.h.h.h.h.h.h.h.h.h.h.o.o.o.o.j.j.j.j.k.k.k.k.l.l.l.l.Z Z Z Z 9.9.9.9.z.z.z.z.",
"1 1 1 1 @ @ @ @ d.d.d.d.f.f.f.f.g.g.g.g.t.t.t.t.h.h.h.h.h.h.h.h.h.h.h.h.o.o.o.o.j.j.j.j.k.k.k.k.l.l.l.l.Z Z Z Z 9.9.9.9.z.z.z.z.",
"1 1 1 1 @ @ @ @ d.d.d.d.f.f.f.f.g.g.g.g.t.t.t.t.h.h.h.h.h.h.h.h.h.h.h.h.o.o.o.o.j.j.j.j.k.k.k.k.l.l.l.l.Z Z Z Z 9.9.9.9.z.z.z.z.",
"e e e e x.x.x.x.c.c.c.c.v.v.v.v.b.b.b.b.n.n.n.n.m.m.m.m.M.M.M.M.N.N.N.N.B.B.B.B.V.V.V.V.C.C.C.C.Z.Z.Z.Z.< < < < A.A.A.A.S.S.S.S.",
"e e e e x.x.x.x.c.c.c.c.v.v.v.v.b.b.b.b.n.n.n.n.m.m.m.m.M.M.M.M.N.N.N.N.B.B.B.B.V.V.V.V.C.C.C.C.Z.Z.Z.Z.< < < < A.A.A.A.S.S.S.S.",
"e e e e x.x.x.x.c.c.c.c.v.v.v.v.b.b.b.b.n.n.n.n.m.m.m.m.M.M.M.M.N.N.N.N.B.B.B.B.V.V.V.V.C.C.C.C.Z.Z.Z.Z.< < < < A.A.A.A.S.S.S.S.",
"e e e e x.x.x.x.c.c.c.c.v.v.v.v.b.b.b.b.n.n.n.n.m.m.m.m.M.M.M.M.N.N.N.N.B.B.B.B.V.V.V.V.C.C.C.C.Z.Z.Z.Z.< < < < A.A.A.A.S.S.S.S.",
"r r r r A A A A D.D.D.D.F.F.F.F.G.G.G.G.H.H.H.H.J.J.J.J.K.K.K.K.L.L.L.L.P.P.P.P.I.I.I.I.U.U.U.U.k k k k Y.Y.Y.Y.I I I I r r r r ",
"r r r r A A A A D.D.D.D.F.F.F.F.G.G.G.G.H.H.H.H.J.J.J.J.K.K.K.K.L.L.L.L.P.P.P.P.I.I.I.I.U.U.U.U.k k k k Y.Y.Y.Y.I I I I r r r r ",
"r r r r A A A A D.D.D.D.F.F.F.F.G.G.G.G.H.H.H.H.J.J.J.J.K.K.K.K.L.L.L.L.P.P.P.P.I.I.I.I.U.U.U.U.k k k k Y.Y.Y.Y.I I I I r r r r ",
"r r r r A A A A D.D.D.D.F.F.F.F.G.G.G.G.H.H.H.H.J.J.J.J.K.K.K.K.L.L.L.L.P.P.P.P.I.I.I.I.U.U.U.U.k k k k Y.Y.Y.Y.I I I I r r r r ",
"Y Y Y Y Y Y Y Y Y Y Y Y Y Y Y Y T.T.T.T.R.R.R.R.E.E.E.E.E.E.E.E.E.E.E.E.E.E.E.E.W.W.W.W.Y Y Y Y Y Y Y Y Y Y Y Y Y Y Y Y Y Y Y Y ",
"Y Y Y Y Y Y Y Y Y Y Y Y Y Y Y Y T.T.T.T.R.R.R.R.E.E.E.E.E.E.E.E.E.E.E.E.E.E.E.E.W.W.W.W.Y Y Y Y Y Y Y Y Y Y Y Y Y Y Y Y Y Y Y Y ",
"Y Y Y Y Y Y Y Y Y Y Y Y Y Y Y Y T.T.T.T.R.R.R.R.E.E.E.E.E.E.E.E.E.E.E.E.E.E.E.E.W.W.W.W.Y Y Y Y Y Y Y Y Y Y Y Y Y Y Y Y Y Y Y Y ",
"Y Y Y Y Y Y Y Y Y Y Y Y Y Y Y Y T.T.T.T.R.R.R.R.E.E.E.E.E.E.E.E.E.E.E.E.E.E.E.E.W.W.W.W.Y Y Y Y Y Y Y Y Y Y Y Y Y Y Y Y Y Y Y Y ",
"Q.Q.Q.Q.Q.Q.Q.Q.Q.Q.Q.Q.Q.Q.Q.Q.Q.Q.Q.Q.!.!.!.!.% % % % % % % % % % % % ' ' ' ' Q.Q.Q.Q.Q.Q.Q.Q.Q.Q.Q.Q.Q.Q.Q.Q.Q.Q.Q.Q.Q.Q.Q.Q.",
"Q.Q.Q.Q.Q.Q.Q.Q.Q.Q.Q.Q.Q.Q.Q.Q.Q.Q.Q.Q.!.!.!.!.% % % % % % % % % % % % ' ' ' ' Q.Q.Q.Q.Q.Q.Q.Q.Q.Q.Q.Q.Q.Q.Q.Q.Q.Q.Q.Q.Q.Q.Q.Q.",
"Q.Q.Q.Q.Q.Q.Q.Q.Q.Q.Q.Q.Q.Q.Q.Q.Q.Q.Q.Q.!.!.!.!.% % % % % % % % % % % % ' ' ' ' Q.Q.Q.Q.Q.Q.Q.Q.Q.Q.Q.Q.Q.Q.Q.Q.Q.Q.Q.Q.Q.Q.Q.Q.",
"Q.Q.Q.Q.Q.Q.Q.Q.Q.Q.Q.Q.Q.Q.Q.Q.Q.Q.Q.Q.!.!.!.!.% % % % % % % % % % % % ' ' ' ' Q.Q.Q.Q.Q.Q.Q.Q.Q.Q.Q.Q.Q.Q.Q.Q.Q.Q.Q.Q.Q.Q.Q.Q."
};
