/* XPM */
static char *_ca57c3e76474e4cf46f53780ae01ce9N74TmSO6AGOATrlD[] = {
/* columns rows colors chars-per-pixel */
"64 64 120 2 ",
"   c #24DADA",
".  c #0B7C82",
"X  c #2A3C4D",
"o  c #293C4D",
"O  c #2A4455",
"+  c #324F62",
"@  c #263F4F",
"#  c #2C4758",
"$  c #38576B",
"%  c #365468",
"&  c #334E61",
"*  c #2E4254",
"=  c #2C6272",
"-  c #0CAAAB",
";  c #30F2F2",
":  c #20999D",
">  c #125A60",
",  c #2E3244",
"<  c #282F40",
"1  c #223A49",
"2  c #233B4A",
"3  c #28414F",
"4  c #2D4856",
"5  c #2B4554",
"6  c #253D4C",
"7  c #253848",
"8  c #303446",
"9  c #25404F",
"0  c #10777A",
"q  c #28AAAE",
"w  c #273D4E",
"e  c #3A586D",
"r  c #2C4051",
"t  c #314A5D",
"y  c #344E60",
"u  c #3D5969",
"i  c #3A5666",
"p  c #344C60",
"a  c #3C566B",
"s  c #375468",
"d  c #213241",
"f  c #304C5E",
"g  c #2D3647",
"h  c #3B5468",
"j  c #1A1624",
"k  c #05040E",
"l  c #0C0A15",
"z  c #2A2F3F",
"x  c #3C576A",
"c  c #2C3547",
"v  c #406278",
"b  c #18212C",
"n  c #426373",
"m  c #284151",
"M  c #06050F",
"N  c #436474",
"B  c #243C4B",
"V  c #070610",
"C  c #0B0914",
"Z  c #446677",
"A  c #294353",
"S  c #080711",
"D  c #0E0B17",
"F  c #0A0813",
"G  c #274150",
"H  c #3A5A6F",
"J  c #274050",
"K  c #0D0B16",
"L  c #120F1B",
"P  c #0F0D18",
"I  c #446676",
"U  c #253E4E",
"Y  c #263F4D",
"T  c #110E1A",
"R  c #0F0C18",
"E  c #19222E",
"W  c #436373",
"Q  c #243646",
"!  c #1D2532",
"~  c #466172",
"^  c #2A2C3D",
"/  c #203442",
"(  c #0E0C17",
")  c #120F1C",
"_  c #222937",
"`  c #435E70",
"'  c #22313F",
"]  c #2C3142",
"[  c #222936",
"{  c #212835",
"}  c #1E2432",
"|  c #212635",
" . c #303A4C",
".. c #3A5267",
"X. c #292B3B",
"o. c #1D4D58",
"O. c #27404E",
"+. c #3D566A",
"@. c #456273",
"#. c #416273",
"$. c #364D61",
"%. c #344C5F",
"&. c #1F404C",
"*. c #1C545E",
"=. c #20C3C3",
"-. c #0B6B6F",
";. c #252636",
":. c #272838",
">. c #272E3E",
",. c #1E3442",
"<. c #1C3D49",
"1. c #0C9898",
"2. c #2AD9D9",
"3. c #26E5E6",
"4. c #067E83",
"5. c #182C39",
"6. c #1D3240",
"7. c #124752",
"8. c #0DB3B5",
"9. c #33FFFF",
/* pixels */
"        . . . . X X X X o o o o O O O O + + + + @ @ @ @ # # # # $ $ $ $ $ $ $ $ % % % % & & & & * * * * = = = = - - - - ; ; ; ; ",
"        . . . . X X X X o o o o O O O O + + + + @ @ @ @ # # # # $ $ $ $ $ $ $ $ % % % % & & & & * * * * = = = = - - - - ; ; ; ; ",
"        . . . . X X X X o o o o O O O O + + + + @ @ @ @ # # # # $ $ $ $ $ $ $ $ % % % % & & & & * * * * = = = = - - - - ; ; ; ; ",
"        . . . . X X X X o o o o O O O O + + + + @ @ @ @ # # # # $ $ $ $ $ $ $ $ % % % % & & & & * * * * = = = = - - - - ; ; ; ; ",
": : : : > > > > , , , , < < < < 1 1 1 1 2 2 2 2 3 3 3 3 4 4 4 4 4 4 4 4 5 5 5 5 6 6 6 6 7 7 7 7 8 8 8 8 9 9 9 9 0 0 0 0 q q q q ",
": : : : > > > > , , , , < < < < 1 1 1 1 2 2 2 2 3 3 3 3 4 4 4 4 4 4 4 4 5 5 5 5 6 6 6 6 7 7 7 7 8 8 8 8 9 9 9 9 0 0 0 0 q q q q ",
": : : : > > > > , , , , < < < < 1 1 1 1 2 2 2 2 3 3 3 3 4 4 4 4 4 4 4 4 5 5 5 5 6 6 6 6 7 7 7 7 8 8 8 8 9 9 9 9 0 0 0 0 q q q q ",
": : : : > > > > , , , , < < < < 1 1 1 1 2 2 2 2 3 3 3 3 4 4 4 4 4 4 4 4 5 5 5 5 6 6 6 6 7 7 7 7 8 8 8 8 9 9 9 9 0 0 0 0 q q q q ",
"w w w w 7 7 7 7 e e e e r r r r t t t t y y y y u u u u u u u u u u u u u u u u i i i i p p p p a a a a s s s s d d d d f f f f ",
"w w w w 7 7 7 7 e e e e r r r r t t t t y y y y u u u u u u u u u u u u u u u u i i i i p p p p a a a a s s s s d d d d f f f f ",
"w w w w 7 7 7 7 e e e e r r r r t t t t y y y y u u u u u u u u u u u u u u u u i i i i p p p p a a a a s s s s d d d d f f f f ",
"w w w w 7 7 7 7 e e e e r r r r t t t t y y y y u u u u u u u u u u u u u u u u i i i i p p p p a a a a s s s s d d d d f f f f ",
"o o o o g g g g h h h h j j j j k k k k k k k k k k k k k k k k k k k k k k k k k k k k l l l l z z z z x x x x c c c c v v v v ",
"o o o o g g g g h h h h j j j j k k k k k k k k k k k k k k k k k k k k k k k k k k k k l l l l z z z z x x x x c c c c v v v v ",
"o o o o g g g g h h h h j j j j k k k k k k k k k k k k k k k k k k k k k k k k k k k k l l l l z z z z x x x x c c c c v v v v ",
"o o o o g g g g h h h h j j j j k k k k k k k k k k k k k k k k k k k k k k k k k k k k l l l l z z z z x x x x c c c c v v v v ",
"@ @ @ @ 3 3 3 3 u u u u k k k k k k k k k k k k k k k k k k k k k k k k k k k k k k k k k k k k b b b b n n n n 1 1 1 1 v v v v ",
"@ @ @ @ 3 3 3 3 u u u u k k k k k k k k k k k k k k k k k k k k k k k k k k k k k k k k k k k k b b b b n n n n 1 1 1 1 v v v v ",
"@ @ @ @ 3 3 3 3 u u u u k k k k k k k k k k k k k k k k k k k k k k k k k k k k k k k k k k k k b b b b n n n n 1 1 1 1 v v v v ",
"@ @ @ @ 3 3 3 3 u u u u k k k k k k k k k k k k k k k k k k k k k k k k k k k k k k k k k k k k b b b b n n n n 1 1 1 1 v v v v ",
"m m m m 4 4 4 4 u u u u k k k k k k k k k k k k k k k k k k k k M M M M k k k k k k k k k k k k b b b b N N N N B B B B v v v v ",
"m m m m 4 4 4 4 u u u u k k k k k k k k k k k k k k k k k k k k M M M M k k k k k k k k k k k k b b b b N N N N B B B B v v v v ",
"m m m m 4 4 4 4 u u u u k k k k k k k k k k k k k k k k k k k k M M M M k k k k k k k k k k k k b b b b N N N N B B B B v v v v ",
"m m m m 4 4 4 4 u u u u k k k k k k k k k k k k k k k k k k k k M M M M k k k k k k k k k k k k b b b b N N N N B B B B v v v v ",
"m m m m 4 4 4 4 u u u u k k k k k k k k k k k k M M M M V V V V C C C C M M M M k k k k M M M M b b b b Z Z Z Z A A A A v v v v ",
"m m m m 4 4 4 4 u u u u k k k k k k k k k k k k M M M M V V V V C C C C M M M M k k k k M M M M b b b b Z Z Z Z A A A A v v v v ",
"m m m m 4 4 4 4 u u u u k k k k k k k k k k k k M M M M V V V V C C C C M M M M k k k k M M M M b b b b Z Z Z Z A A A A v v v v ",
"m m m m 4 4 4 4 u u u u k k k k k k k k k k k k M M M M V V V V C C C C M M M M k k k k M M M M b b b b Z Z Z Z A A A A v v v v ",
"m m m m 4 4 4 4 u u u u k k k k k k k k V V V V C C C C S S S S D D D D C C C C V V V V F F F F b b b b Z Z Z Z G G G G H H H H ",
"m m m m 4 4 4 4 u u u u k k k k k k k k V V V V C C C C S S S S D D D D C C C C V V V V F F F F b b b b Z Z Z Z G G G G H H H H ",
"m m m m 4 4 4 4 u u u u k k k k k k k k V V V V C C C C S S S S D D D D C C C C V V V V F F F F b b b b Z Z Z Z G G G G H H H H ",
"m m m m 4 4 4 4 u u u u k k k k k k k k V V V V C C C C S S S S D D D D C C C C V V V V F F F F b b b b Z Z Z Z G G G G H H H H ",
"J J J J 5 5 5 5 u u u u k k k k M M M M V V V V K K K K D D D D L L L L P P P P S S S S F F F F b b b b I I I I 2 2 2 2 f f f f ",
"J J J J 5 5 5 5 u u u u k k k k M M M M V V V V K K K K D D D D L L L L P P P P S S S S F F F F b b b b I I I I 2 2 2 2 f f f f ",
"J J J J 5 5 5 5 u u u u k k k k M M M M V V V V K K K K D D D D L L L L P P P P S S S S F F F F b b b b I I I I 2 2 2 2 f f f f ",
"J J J J 5 5 5 5 u u u u k k k k M M M M V V V V K K K K D D D D L L L L P P P P S S S S F F F F b b b b I I I I 2 2 2 2 f f f f ",
"U U U U Y Y Y Y u u u u V V V V C C C C F F F F T T T T R R R R L L L L T T T T K K K K C C C C E E E E W W W W Q Q Q Q H H H H ",
"U U U U Y Y Y Y u u u u V V V V C C C C F F F F T T T T R R R R L L L L T T T T K K K K C C C C E E E E W W W W Q Q Q Q H H H H ",
"U U U U Y Y Y Y u u u u V V V V C C C C F F F F T T T T R R R R L L L L T T T T K K K K C C C C E E E E W W W W Q Q Q Q H H H H ",
"U U U U Y Y Y Y u u u u V V V V C C C C F F F F T T T T R R R R L L L L T T T T K K K K C C C C E E E E W W W W Q Q Q Q H H H H ",
"B B B B 6 6 6 6 i i i i V V V V l l l l R R R R L L L L L L L L L L L L L L L L T T T T K K K K ! ! ! ! ~ ~ ~ ~ ^ ^ ^ ^ O O O O ",
"B B B B 6 6 6 6 i i i i V V V V l l l l R R R R L L L L L L L L L L L L L L L L T T T T K K K K ! ! ! ! ~ ~ ~ ~ ^ ^ ^ ^ O O O O ",
"B B B B 6 6 6 6 i i i i V V V V l l l l R R R R L L L L L L L L L L L L L L L L T T T T K K K K ! ! ! ! ~ ~ ~ ~ ^ ^ ^ ^ O O O O ",
"B B B B 6 6 6 6 i i i i V V V V l l l l R R R R L L L L L L L L L L L L L L L L T T T T K K K K ! ! ! ! ~ ~ ~ ~ ^ ^ ^ ^ O O O O ",
"/ / / / 7 7 7 7 p p p p ( ( ( ( R R R R L L L L L L L L L L L L L L L L L L L L L L L L ) ) ) ) _ _ _ _ ` ` ` ` ^ ^ ^ ^ O O O O ",
"/ / / / 7 7 7 7 p p p p ( ( ( ( R R R R L L L L L L L L L L L L L L L L L L L L L L L L ) ) ) ) _ _ _ _ ` ` ` ` ^ ^ ^ ^ O O O O ",
"/ / / / 7 7 7 7 p p p p ( ( ( ( R R R R L L L L L L L L L L L L L L L L L L L L L L L L ) ) ) ) _ _ _ _ ` ` ` ` ^ ^ ^ ^ O O O O ",
"/ / / / 7 7 7 7 p p p p ( ( ( ( R R R R L L L L L L L L L L L L L L L L L L L L L L L L ) ) ) ) _ _ _ _ ` ` ` ` ^ ^ ^ ^ O O O O ",
"' ' ' ' 8 8 8 8 a a a a ] ] ] ] [ [ [ [ [ [ [ [ [ [ [ [ [ [ [ [ [ [ [ [ { { { { } } } } | | | |  . . . .........X.X.X.X.U U U U ",
"' ' ' ' 8 8 8 8 a a a a ] ] ] ] [ [ [ [ [ [ [ [ [ [ [ [ [ [ [ [ [ [ [ [ { { { { } } } } | | | |  . . . .........X.X.X.X.U U U U ",
"' ' ' ' 8 8 8 8 a a a a ] ] ] ] [ [ [ [ [ [ [ [ [ [ [ [ [ [ [ [ [ [ [ [ { { { { } } } } | | | |  . . . .........X.X.X.X.U U U U ",
"' ' ' ' 8 8 8 8 a a a a ] ] ] ] [ [ [ [ [ [ [ [ [ [ [ [ [ [ [ [ [ [ [ [ { { { { } } } } | | | |  . . . .........X.X.X.X.U U U U ",
"o.o.o.o.O.O.O.O.........+.+.+.+.@.@.@.@.N N N N Z Z Z Z Z Z Z Z Z Z Z Z #.#.#.#.s s s s $.$.$.$.* * * * %.%.%.%.&.&.&.&.*.*.*.*.",
"o.o.o.o.O.O.O.O.........+.+.+.+.@.@.@.@.N N N N Z Z Z Z Z Z Z Z Z Z Z Z #.#.#.#.s s s s $.$.$.$.* * * * %.%.%.%.&.&.&.&.*.*.*.*.",
"o.o.o.o.O.O.O.O.........+.+.+.+.@.@.@.@.N N N N Z Z Z Z Z Z Z Z Z Z Z Z #.#.#.#.s s s s $.$.$.$.* * * * %.%.%.%.&.&.&.&.*.*.*.*.",
"o.o.o.o.O.O.O.O.........+.+.+.+.@.@.@.@.N N N N Z Z Z Z Z Z Z Z Z Z Z Z #.#.#.#.s s s s $.$.$.$.* * * * %.%.%.%.&.&.&.&.*.*.*.*.",
"=.=.=.=.-.-.-.-.;.;.;.;.:.:.:.:.>.>.>.>.,.,.,.,.2 2 2 2 6 6 6 6 A A A A J J J J Q Q Q Q X.X.X.X.;.;.;.;.<.<.<.<.1.1.1.1.2.2.2.2.",
"=.=.=.=.-.-.-.-.;.;.;.;.:.:.:.:.>.>.>.>.,.,.,.,.2 2 2 2 6 6 6 6 A A A A J J J J Q Q Q Q X.X.X.X.;.;.;.;.<.<.<.<.1.1.1.1.2.2.2.2.",
"=.=.=.=.-.-.-.-.;.;.;.;.:.:.:.:.>.>.>.>.,.,.,.,.2 2 2 2 6 6 6 6 A A A A J J J J Q Q Q Q X.X.X.X.;.;.;.;.<.<.<.<.1.1.1.1.2.2.2.2.",
"=.=.=.=.-.-.-.-.;.;.;.;.:.:.:.:.>.>.>.>.,.,.,.,.2 2 2 2 6 6 6 6 A A A A J J J J Q Q Q Q X.X.X.X.;.;.;.;.<.<.<.<.1.1.1.1.2.2.2.2.",
"3.3.3.3.4.4.4.4.5.5.5.5.6.6.6.6.O O O O O O O O O O O O f f f f v v v v v v v v H H H H U U U U 5.5.5.5.7.7.7.7.8.8.8.8.9.9.9.9.",
"3.3.3.3.4.4.4.4.5.5.5.5.6.6.6.6.O O O O O O O O O O O O f f f f v v v v v v v v H H H H U U U U 5.5.5.5.7.7.7.7.8.8.8.8.9.9.9.9.",
"3.3.3.3.4.4.4.4.5.5.5.5.6.6.6.6.O O O O O O O O O O O O f f f f v v v v v v v v H H H H U U U U 5.5.5.5.7.7.7.7.8.8.8.8.9.9.9.9.",
"3.3.3.3.4.4.4.4.5.5.5.5.6.6.6.6.O O O O O O O O O O O O f f f f v v v v v v v v H H H H U U U U 5.5.5.5.7.7.7.7.8.8.8.8.9.9.9.9."
};
